<?xml version="1.0" encoding="UTF-8" standalone="no"?><!DOCTYPE svg PUBLIC "-//W3C//DTD SVG 1.1//EN" "http://www.w3.org/Graphics/SVG/1.1/DTD/svg11.dtd"><svg width="100%" height="100%" viewBox="0 0 32 42" version="1.1" xmlns="http://www.w3.org/2000/svg" xmlns:xlink="http://www.w3.org/1999/xlink" xml:space="preserve" xmlns:serif="http://www.serif.com/" style="fill-rule:evenodd;clip-rule:evenodd;stroke-linejoin:round;stroke-miterlimit:1.41421;"><rect id="Artboard1" x="0" y="0" width="32" height="42" style="fill:none;"/><clipPath id="_clip1"><rect x="0" y="0" width="32" height="42"/></clipPath><g clip-path="url(#_clip1)"><g><g><clipPath id="_clip2"><rect x="-1" y="-0.104" width="33.241" height="48.433"/></clipPath><g clip-path="url(#_clip2)"><path d="M32.215,43.927l-0.075,-0.678c-0.03,-0.269 -0.271,-0.462 -0.54,-0.433l-0.042,0.005l-0.73,-5.839c-0.159,-1.271 -1.034,-2.337 -2.248,-2.742l-5.375,-1.791c-0.108,0.243 -0.228,0.48 -0.358,0.711l-1.115,-0.371c-0.679,-0.227 -1.136,-0.862 -1.136,-1.577l0,-2.68l3.579,-1.492c1.858,-0.774 3.069,-2.59 3.069,-4.602l0,-0.832c1.376,0 2.493,-1.116 2.493,-2.493c0,-1.376 -1.117,-2.493 -2.493,-2.493l0,-1.662c0,-2.294 -1.861,-4.155 -4.155,-4.155l-14.959,0c-2.295,0 -4.155,1.861 -4.155,4.155l0,1.662c-1.377,0 -2.493,1.117 -2.493,2.493c0,1.377 1.116,2.493 2.493,2.493l0,0.832c0,2.012 1.211,3.828 3.068,4.602l3.58,1.492l0,2.68c0,0.716 -0.458,1.351 -1.136,1.577l-1.116,0.372c-0.13,-0.232 -0.249,-0.469 -0.357,-0.712l-5.376,1.791c-1.214,0.405 -2.088,1.471 -2.247,2.742l-0.73,5.839l-0.042,-0.005c-0.269,-0.029 -0.511,0.164 -0.54,0.433l-0.076,0.679c-0.029,0.268 0.164,0.51 0.433,0.54l1.215,0.135l0,1.934c0,0.918 0.744,1.662 1.662,1.662l26.593,0c0.918,0 1.662,-0.744 1.662,-1.662l0,-1.934l1.215,-0.135c0.269,-0.03 0.462,-0.272 0.432,-0.541Z" style="fill:#f6b47b;fill-rule:nonzero;"/><path d="M27.241,5.839c0,-0.008 0.003,-0.014 0.003,-0.022c0,-2.294 -1.861,-4.155 -4.155,-4.155c-0.647,0 -1.251,0.16 -1.796,0.423c-0.684,-0.764 -1.668,-1.254 -2.775,-1.254c-0.58,0 -1.122,0.143 -1.612,0.379c-0.437,-0.722 -1.222,-1.21 -2.128,-1.21c-0.997,0 -1.852,0.59 -2.25,1.437c-0.54,-0.379 -1.195,-0.606 -1.905,-0.606c-1.391,0 -2.58,0.856 -3.075,2.07c-0.291,-0.251 -0.665,-0.408 -1.08,-0.408c-0.918,0 -1.662,0.744 -1.662,1.662c0,0 -4.155,-0.034 -4.155,4.986c0,2.34 1.662,9.142 1.662,9.142l26.593,0c0,0 0.831,-3.844 0.831,-9.142c0,-1.439 -1.338,-2.582 -2.496,-3.302Z" style="fill:#734a3e;fill-rule:nonzero;"/><path d="M14.29,13.247c-2.062,-0.245 -3.667,-1.978 -3.667,-4.106c0,-2.138 1.622,-3.879 3.7,-4.109c-0.236,-0.522 -0.376,-1.098 -0.376,-1.708c0,-1.303 0.608,-2.452 1.549,-3.209c-0.228,-0.07 -0.467,-0.115 -0.718,-0.115c-0.997,0 -1.852,0.59 -2.25,1.437c-0.54,-0.379 -1.195,-0.606 -1.905,-0.606c-1.391,0 -2.58,0.856 -3.075,2.07c-0.291,-0.251 -0.665,-0.408 -1.08,-0.408c-0.918,0 -1.662,0.744 -1.662,1.662c0,0 -4.155,-0.034 -4.155,4.986c0,2.34 1.662,9.142 1.662,9.142l11.946,0l0.031,-5.036Z" style="fill:#5e342e;fill-rule:nonzero;"/><path d="M20.596,28.462l-9.973,0l0,2.75c0,0.598 -0.331,1.125 -0.832,1.419c6.969,1.22 10.805,-4.169 10.805,-4.169Z" style="fill:#e2a071;fill-rule:nonzero;"/><path d="M27.244,16.62l0,-1.662c0,-2.294 -1.861,-4.155 -4.155,-4.155l-14.959,0c-2.295,0 -4.155,1.861 -4.155,4.155l0,1.662c-1.377,0 -2.493,1.117 -2.493,2.493c0,1.377 1.116,2.493 2.493,2.493l0,0.832c0,2.012 1.211,3.828 3.068,4.602l5.37,2.237c1.013,0.422 2.099,0.64 3.196,0.64c1.097,0 2.184,-0.218 3.196,-0.64l5.37,-2.237c1.858,-0.774 3.069,-2.59 3.069,-4.602l0,-0.832c1.376,0 2.493,-1.116 2.493,-2.493c0,-1.376 -1.117,-2.493 -2.493,-2.493Z" style="fill:#fdc88e;fill-rule:nonzero;"/><path d="M9.792,19.945c-0.457,0 -0.831,-0.375 -0.831,-0.832l0,-0.83c0,-0.458 0.374,-0.832 0.831,-0.832c0.457,0 0.831,0.374 0.831,0.832l0,0.83c0,0.457 -0.374,0.832 -0.831,0.832Z" style="fill:#623f33;fill-rule:nonzero;"/><path d="M21.426,19.945c-0.457,0 -0.83,-0.375 -0.83,-0.832l0,-0.83c0,-0.458 0.373,-0.832 0.83,-0.832c0.457,0 0.831,0.374 0.831,0.832l0,0.83c0,0.457 -0.374,0.832 -0.831,0.832Z" style="fill:#623f33;fill-rule:nonzero;"/><path d="M15.609,25.784c-1.477,0 -2.859,-0.363 -3.791,-0.997c-0.38,-0.259 -0.479,-0.775 -0.22,-1.155c0.258,-0.379 0.775,-0.477 1.155,-0.219c0.653,0.444 1.721,0.71 2.856,0.71c1.136,0 2.204,-0.266 2.857,-0.71c0.38,-0.259 0.896,-0.16 1.154,0.219c0.259,0.38 0.16,0.896 -0.219,1.155c-0.932,0.634 -2.314,0.997 -3.792,0.997Z" style="fill:#e2a071;fill-rule:nonzero;"/><path d="M8.337,25.317c-0.673,-0.722 -1.038,-1.674 -1.038,-2.662l0,-11.768c-1.896,0.385 -3.324,2.061 -3.324,4.071l0,1.662c-1.377,0 -2.493,1.117 -2.493,2.493c0,1.377 1.116,2.493 2.493,2.493l0,0.832c0,2.012 1.211,3.828 3.068,4.602l5.37,2.237c0.262,0.11 0.531,0.204 0.803,0.286c-2.374,-1.736 -3.953,-3.253 -4.879,-4.246Z" style="fill:#f6b47b;fill-rule:nonzero;"/><path d="M30.828,36.982c-0.159,-1.271 -1.034,-2.337 -2.248,-2.742l-5.375,-1.791l-5.103,3.285l-1.662,1.662l-1.662,0l-1.662,-1.662l-5.102,-3.285l-5.376,1.791c-1.214,0.405 -2.088,1.471 -2.247,2.742l-0.79,6.323l6.867,0.739l0,4.155l18.282,0l0,-4.155l6.96,0l-0.882,-7.062Z" style="fill:#43a0c5;fill-rule:nonzero;"/><path d="M6.468,44.671l0,-1.88c0,-0.8 -0.288,-1.573 -0.811,-2.177l-4.573,-5.278c-0.369,0.467 -0.616,1.031 -0.693,1.646l-0.868,6.943c1.322,0.08 4.838,0.492 6.945,0.746Z" style="fill:#2c8cb3;fill-rule:nonzero;"/><path d="M6.468,43.577l-6.849,-0.761c-0.269,-0.029 -0.511,0.164 -0.54,0.433l-0.076,0.678c-0.03,0.269 0.164,0.511 0.432,0.541l7.033,0.781l0,-1.672Z" style="fill:#1179a2;fill-rule:nonzero;"/><path d="M24.751,44.671l0,-1.88c0,-0.8 0.288,-1.573 0.811,-2.177l4.573,-5.278c0.369,0.467 0.616,1.031 0.693,1.646l0.868,6.943c-1.322,0.08 -4.838,0.492 -6.945,0.746Z" style="fill:#2c8cb3;fill-rule:nonzero;"/><path d="M24.751,43.577l6.849,-0.761c0.269,-0.029 0.51,0.164 0.54,0.433l0.075,0.678c0.03,0.269 -0.163,0.511 -0.432,0.541l-7.032,0.781l0,-1.672Z" style="fill:#1179a2;fill-rule:nonzero;"/><path d="M10.253,31.439l2.863,4.295l-2.493,3.324l-3.324,-6.648l1.802,-1.201c0.382,-0.255 0.897,-0.152 1.152,0.23Z" style="fill:#2c8cb3;fill-rule:nonzero;"/><path d="M20.965,31.439l-2.863,4.295l2.494,3.324l3.323,-6.648l-1.801,-1.201c-0.382,-0.255 -0.898,-0.152 -1.153,0.23Z" style="fill:#2c8cb3;fill-rule:nonzero;"/><path d="M15.609,44.044c-0.459,0 -0.831,-0.372 -0.831,-0.831l0,-5.817l1.662,0l0,5.817c0,0.459 -0.372,0.831 -0.831,0.831Z" style="fill:#2c8cb3;fill-rule:nonzero;"/><path d="M25.997,7.479c-0.469,0 -0.906,0.122 -1.298,0.319c-0.255,-2.05 -1.984,-3.643 -4.103,-3.643c-1.455,0 -2.73,0.75 -3.472,1.88c-0.34,-0.139 -0.71,-0.218 -1.099,-0.218c-0.389,0 -0.76,0.079 -1.099,0.218c-0.742,-1.13 -2.018,-1.88 -3.472,-1.88c-2.295,0 -4.155,1.861 -4.155,4.155c0,2.295 1.86,4.155 4.155,4.155c1.184,0 2.247,-0.501 3.003,-1.296c0.453,0.292 0.989,0.466 1.568,0.466c0.578,0 1.114,-0.174 1.567,-0.466c0.757,0.795 1.819,1.296 3.004,1.296c1.035,0 1.971,-0.392 2.698,-1.019c0.424,1.082 1.471,1.85 2.703,1.85c1.606,0 2.909,-1.302 2.909,-2.908c0,-1.607 -1.303,-2.909 -2.909,-2.909Z" style="fill:#734a3e;fill-rule:nonzero;"/><path d="M11.974,8.622c0,2.18 -1.768,3.947 -3.948,3.947c-2.18,0 -3.947,-1.767 -3.947,-3.947c0,-2.18 1.767,-3.948 3.947,-3.948c2.18,0 3.948,1.768 3.948,3.948Z" style="fill:#5e342e;fill-rule:nonzero;"/></g></g></g></g></svg>