<?xml version="1.0" encoding="UTF-8" standalone="no"?><!DOCTYPE svg PUBLIC "-//W3C//DTD SVG 1.1//EN" "http://www.w3.org/Graphics/SVG/1.1/DTD/svg11.dtd"><svg width="100%" height="100%" viewBox="0 0 32 42" version="1.1" xmlns="http://www.w3.org/2000/svg" xmlns:xlink="http://www.w3.org/1999/xlink" xml:space="preserve" xmlns:serif="http://www.serif.com/" style="fill-rule:evenodd;clip-rule:evenodd;stroke-linejoin:round;stroke-miterlimit:1.41421;"><rect id="Artboard1" x="0" y="0" width="32" height="42" style="fill:none;"/><clipPath id="_clip1"><rect x="0" y="0" width="32" height="42"/></clipPath><g clip-path="url(#_clip1)"><g><g><path d="M28.495,33.04c-0.158,-1.19 -0.896,-2.223 -1.97,-2.76l-1.559,-0.78c-0.233,-0.116 -0.499,-0.013 -0.613,0.207l-0.786,-0.289c5.419,-1.476 8.295,-4.073 8.295,-4.073c-2.851,-5.567 -2.082,-14.03 -4.345,-18.828c-2.263,-4.797 -6.517,-6.517 -11.586,-6.517c-5.069,0 -9.323,1.72 -11.586,6.517c-2.263,4.798 -1.494,13.261 -4.345,18.828c0,0 2.876,2.597 8.295,4.073l-0.786,0.289c-0.112,-0.22 -0.378,-0.324 -0.61,-0.208l-1.422,0.711c-1.214,0.607 -1.951,1.64 -2.11,2.83l-0.035,0.263l-0.832,6.237c-0.173,1.303 0.84,2.46 2.154,2.46l22.554,0c1.314,0 2.327,-1.157 2.154,-2.46l-0.867,-6.5Z" style="fill:#ffd7a3;fill-rule:nonzero;"/><path d="M27.517,6.517c-2.263,-4.797 -6.517,-6.517 -11.586,-6.517c-5.069,0 -9.323,1.72 -11.586,6.517c-2.263,4.798 -1.494,13.261 -4.345,18.828c0,0 5.612,5.069 15.931,5.069c10.319,0 15.931,-5.069 15.931,-5.069c-2.851,-5.567 -2.082,-14.03 -4.345,-18.828Z" style="fill:#9d6e48;fill-rule:nonzero;"/><path d="M11.586,12.944c0,-5.069 1.893,-9.802 5.715,-12.894c-0.45,-0.03 -0.905,-0.05 -1.37,-0.05c-5.069,0 -9.323,1.72 -11.586,6.517c-2.263,4.798 -1.494,13.261 -4.345,18.828c0,0 4.112,3.611 11.586,4.731l0,-17.132Z" style="fill:#8d5f3d;fill-rule:nonzero;"/><path d="M28.53,33.303c-0.177,-1.332 -1.078,-2.455 -2.339,-2.919l-4.925,-1.812c-0.591,-0.197 -0.99,-0.751 -0.99,-1.374l0,-4.75l-8.69,0l0,4.75c0,0.623 -0.399,1.176 -0.99,1.374l-4.925,1.812c-1.261,0.464 -2.161,1.587 -2.339,2.919l-0.832,6.237c-0.173,1.303 0.84,2.46 2.154,2.46l22.555,0c1.313,0 2.327,-1.157 2.153,-2.46l-0.832,-6.237Z" style="fill:#ffd7a3;fill-rule:nonzero;"/><path d="M11.586,27.198c0,0.035 -0.001,0.07 -0.004,0.105c-0.001,0.018 -0.003,0.036 -0.006,0.054c-0.001,0.014 -0.003,0.029 -0.004,0.043c-0.005,0.027 -0.009,0.055 -0.015,0.082c0,0.001 0,0.002 -0.001,0.002c-0.08,0.398 -0.324,0.745 -0.671,0.954c6.057,1.046 9.391,-3.576 9.391,-3.576l-8.69,-0.06l0,2.396Z" style="fill:#fdc88e;fill-rule:nonzero;"/><path d="M26.069,14.483l0,-1.449c0,-1.999 -1.621,-3.62 -3.621,-3.62l-13.034,0c-2,0 -3.621,1.621 -3.621,3.62l0,1.449c-1.199,0 -2.172,0.973 -2.172,2.172c0,1.2 0.973,2.172 2.172,2.172l0,0.725c0,1.754 1.055,3.335 2.674,4.01l4.679,1.95c0.882,0.368 1.829,0.557 2.785,0.557c0.956,0 1.902,-0.189 2.785,-0.557l4.679,-1.95c1.619,-0.674 2.674,-2.256 2.674,-4.01l0,-0.725c1.2,0 2.173,-0.972 2.173,-2.172c0,-1.199 -0.973,-2.172 -2.173,-2.172Z" style="fill:#ffe1b2;fill-rule:nonzero;"/><path d="M22.267,11.553l0,-1.867l-14.228,0c-1.318,0.541 -2.246,1.836 -2.246,3.348l0,1.449c-1.199,0 -2.172,0.973 -2.172,2.172c0,1.2 0.973,2.172 2.172,2.172l0,0.725c0,1.754 1.055,3.336 2.674,4.01l4.679,1.95c0.229,0.095 0.463,0.178 0.699,0.249c-2.068,-1.513 -3.444,-2.835 -4.25,-3.7c-0.587,-0.629 -0.905,-1.459 -0.905,-2.319l0,-5.269c2.336,-0.058 9.747,-0.437 13.577,-2.92Z" style="fill:#ffd7a3;fill-rule:nonzero;"/><path d="M10.862,17.38c-0.398,0 -0.724,-0.327 -0.724,-0.725l0,-0.724c0,-0.398 0.326,-0.724 0.724,-0.724c0.398,0 0.724,0.326 0.724,0.724l0,0.724c0,0.398 -0.326,0.725 -0.724,0.725Z" style="fill:#623f33;fill-rule:nonzero;"/><path d="M21,17.38c-0.398,0 -0.724,-0.327 -0.724,-0.725l0,-0.724c0,-0.398 0.326,-0.724 0.724,-0.724c0.398,0 0.724,0.326 0.724,0.724l0,0.724c0,0.398 -0.326,0.725 -0.724,0.725Z" style="fill:#623f33;fill-rule:nonzero;"/><path d="M15.931,22.468c-1.287,0 -2.492,-0.317 -3.304,-0.869c-0.33,-0.225 -0.416,-0.676 -0.191,-1.006c0.225,-0.33 0.675,-0.416 1.006,-0.192c0.569,0.387 1.5,0.619 2.489,0.619c0.989,0 1.92,-0.232 2.489,-0.619c0.331,-0.225 0.781,-0.139 1.006,0.192c0.225,0.33 0.14,0.781 -0.191,1.006c-0.812,0.552 -2.016,0.869 -3.304,0.869Z" style="fill:#e4b07b;fill-rule:nonzero;"/><path d="M7.241,13.034c0,0 4.617,0.453 7.242,-0.724c0.369,-0.165 1.448,-2.534 1.448,-2.534l0,3.258c0,0 3.33,-0.172 6.789,-1.568l0,-2.596l-15.972,0c0.329,1.657 0.493,4.164 0.493,4.164Z" style="fill:#9d6e48;fill-rule:nonzero;"/><path d="M26.525,30.28l-1.559,-0.78c-0.265,-0.132 -0.573,0.019 -0.651,0.304c-1.004,3.69 -4.376,6.403 -8.384,6.403c-4.009,0 -7.382,-2.714 -8.385,-6.405c-0.077,-0.284 -0.384,-0.435 -0.647,-0.303l-1.422,0.711c-1.214,0.607 -1.951,1.64 -2.11,2.83l-0.867,6.5c-0.173,1.303 0.84,2.46 2.154,2.46l22.555,0c1.313,0 2.327,-1.157 2.153,-2.46l-0.867,-6.5c-0.158,-1.19 -0.896,-2.223 -1.97,-2.76Z" style="fill:#ff6473;fill-rule:nonzero;"/><path d="M3.697,31.964c-0.164,0.338 -0.28,0.697 -0.33,1.076l-0.867,6.5c-0.173,1.303 0.84,2.46 2.154,2.46l3.311,0l0,-2.896c0,-0.94 -0.305,-1.855 -0.869,-2.607l-3.399,-4.533Z" style="fill:#f05467;fill-rule:nonzero;"/><path d="M28.165,31.964c0.164,0.338 0.28,0.697 0.33,1.076l0.867,6.5c0.173,1.303 -0.84,2.46 -2.154,2.46l-3.311,0l0,-2.896c0,-0.94 0.305,-1.855 0.868,-2.607l3.4,-4.533Z" style="fill:#f05467;fill-rule:nonzero;"/><path d="M24.983,9.382c0,0.975 -1.967,1.765 -2.942,1.765c-0.975,0 -1.765,-0.79 -1.765,-1.765c0,-0.975 0.79,-1.765 1.765,-1.765c0.975,0 2.942,0.79 2.942,1.765Z" style="fill:#bd445a;fill-rule:nonzero;"/><path d="M24.983,9.382c0,-0.975 1.967,-1.765 2.942,-1.765c0.974,0 1.765,0.79 1.765,1.765c0,0.975 -0.791,1.765 -1.765,1.765c-0.975,0 -2.942,-0.79 -2.942,-1.765Z" style="fill:#bd445a;fill-rule:nonzero;"/><path d="M24.983,9.382c0.844,0.487 0.545,2.586 0.057,3.43c-0.487,0.845 -1.566,1.134 -2.411,0.646c-0.844,-0.487 -1.133,-1.566 -0.646,-2.411c0.488,-0.844 2.156,-2.153 3,-1.665Z" style="fill:#ff6473;fill-rule:nonzero;"/><path d="M24.983,9.382c-0.844,-0.488 -0.546,-2.586 -0.058,-3.43c0.488,-0.844 1.567,-1.134 2.412,-0.646c0.844,0.487 1.133,1.567 0.646,2.411c-0.488,0.844 -2.156,2.152 -3,1.665Z" style="fill:#ff6473;fill-rule:nonzero;"/><path d="M24.983,9.382c-0.844,0.487 -0.546,2.586 -0.058,3.43c0.488,0.845 1.567,1.134 2.412,0.646c0.844,-0.487 1.133,-1.566 0.646,-2.411c-0.488,-0.844 -2.156,-2.153 -3,-1.665Z" style="fill:#f05467;fill-rule:nonzero;"/><path d="M24.983,9.382c0.844,-0.488 0.545,-2.586 0.057,-3.43c-0.487,-0.844 -1.566,-1.134 -2.411,-0.646c-0.844,0.487 -1.133,1.567 -0.646,2.411c0.488,0.844 2.156,2.152 3,1.665Z" style="fill:#f05467;fill-rule:nonzero;"/><path d="M26.159,9.382c0,0.65 -0.526,1.177 -1.176,1.177c-0.65,0 -1.177,-0.527 -1.177,-1.177c0,-0.65 0.527,-1.177 1.177,-1.177c0.65,0 1.176,0.527 1.176,1.177Z" style="fill:#fff;fill-rule:nonzero;"/><path d="M6.748,8.87c0.329,1.657 0.493,4.164 0.493,4.164c0,0 2.089,0.204 4.255,-0.02l0,-0.07c0,-1.393 0.154,-2.759 0.451,-4.074l-5.199,0Z" style="fill:#8d5f3d;fill-rule:nonzero;"/></g></g></g></svg>