<?xml version="1.0" encoding="UTF-8" standalone="no"?><!DOCTYPE svg PUBLIC "-//W3C//DTD SVG 1.1//EN" "http://www.w3.org/Graphics/SVG/1.1/DTD/svg11.dtd"><svg width="100%" height="100%" viewBox="0 0 184 37" version="1.1" xmlns="http://www.w3.org/2000/svg" xmlns:xlink="http://www.w3.org/1999/xlink" xml:space="preserve" xmlns:serif="http://www.serif.com/" style="fill-rule:evenodd;clip-rule:evenodd;stroke-linejoin:round;stroke-miterlimit:1.41421;"><rect id="Artboard1" x="0" y="0" width="183.574" height="36.294" style="fill:none;"/><clipPath id="_clip1"><rect id="Artboard11" serif:id="Artboard1" x="0" y="0" width="183.574" height="36.294"/></clipPath><g clip-path="url(#_clip1)"><g><path d="M10.743,0c2.793,0 5.213,1.061 7.261,3.182c2.047,2.121 3.07,4.768 3.07,7.942c0,3.269 -1.031,5.983 -3.094,8.141c-2.063,2.158 -4.56,3.237 -7.49,3.237c-2.963,0 -5.452,-1.052 -7.467,-3.158c-2.015,-2.105 -3.023,-4.829 -3.023,-8.172c0,-3.417 1.164,-6.205 3.491,-8.363c2.021,-1.873 4.438,-2.809 7.252,-2.809Zm-0.301,1.158c-1.926,0 -3.47,0.715 -4.634,2.143c-1.449,1.777 -2.174,4.38 -2.174,7.807c0,3.513 0.751,6.216 2.253,8.11c1.154,1.438 2.677,2.158 4.571,2.158c2.02,0 3.689,-0.788 5.006,-2.365c1.318,-1.576 1.976,-4.062 1.976,-7.458c0,-3.682 -0.725,-6.427 -2.174,-8.236c-1.164,-1.439 -2.772,-2.159 -4.824,-2.159Z" style="fill:#fbd585;fill-rule:nonzero;"/><path d="M37.34,11.029c1.492,0.317 2.608,0.825 3.348,1.523c1.027,0.974 1.54,2.164 1.54,3.571c0,1.069 -0.339,2.092 -1.016,3.071c-0.677,0.978 -1.605,1.692 -2.785,2.142c-1.179,0.45 -2.981,0.674 -5.403,0.674l-10.157,0l0,-0.587l0.81,0c0.899,0 1.544,-0.285 1.936,-0.857c0.243,-0.37 0.365,-1.158 0.365,-2.364l0,-13.901c0,-1.333 -0.154,-2.175 -0.46,-2.524c-0.413,-0.465 -1.027,-0.698 -1.841,-0.698l-0.81,0l0,-0.587l9.3,0c1.735,0 3.126,0.127 4.173,0.381c1.587,0.381 2.799,1.055 3.634,2.023c0.836,0.968 1.254,2.082 1.254,3.341c0,1.079 -0.328,2.044 -0.984,2.896c-0.656,0.851 -1.624,1.483 -2.904,1.896Zm-8.315,-0.857c0.391,0.074 0.838,0.13 1.341,0.167c0.502,0.037 1.055,0.055 1.658,0.055c1.545,0 2.706,-0.166 3.483,-0.5c0.778,-0.333 1.373,-0.843 1.785,-1.531c0.413,-0.688 0.619,-1.439 0.619,-2.253c0,-1.259 -0.513,-2.333 -1.539,-3.222c-1.026,-0.888 -2.523,-1.333 -4.491,-1.333c-1.058,0 -2.01,0.117 -2.856,0.349l0,8.268Zm0,10.283c1.227,0.286 2.438,0.429 3.634,0.429c1.915,0 3.375,-0.431 4.38,-1.294c1.005,-0.862 1.507,-1.928 1.507,-3.197c0,-0.836 -0.227,-1.64 -0.682,-2.412c-0.455,-0.773 -1.196,-1.381 -2.222,-1.825c-1.026,-0.445 -2.296,-0.667 -3.809,-0.667c-0.655,0 -1.216,0.011 -1.682,0.032c-0.465,0.021 -0.841,0.058 -1.126,0.111l0,8.823Z" style="fill:#fbd585;fill-rule:nonzero;"/><path d="M59.509,1.079l0,-0.587l7.617,0l0,0.587l-0.809,0c-0.846,0 -1.497,0.355 -1.952,1.063c-0.222,0.328 -0.333,1.09 -0.333,2.285l0,8.729c0,2.158 -0.214,3.832 -0.643,5.022c-0.428,1.19 -1.269,2.211 -2.523,3.063c-1.254,0.851 -2.96,1.277 -5.118,1.277c-2.348,0 -4.131,-0.407 -5.348,-1.222c-1.216,-0.814 -2.078,-1.909 -2.586,-3.285c-0.339,-0.941 -0.508,-2.708 -0.508,-5.3l0,-8.41c0,-1.323 -0.183,-2.19 -0.548,-2.603c-0.365,-0.413 -0.954,-0.619 -1.769,-0.619l-0.809,0l0,-0.587l9.299,0l0,0.587l-0.825,0c-0.889,0 -1.524,0.28 -1.904,0.841c-0.265,0.381 -0.397,1.174 -0.397,2.381l0,9.378c0,0.836 0.076,1.793 0.23,2.873c0.153,1.079 0.431,1.92 0.833,2.523c0.402,0.603 0.981,1.1 1.738,1.491c0.756,0.392 1.684,0.588 2.785,0.588c1.407,0 2.666,-0.307 3.777,-0.921c1.11,-0.613 1.869,-1.399 2.277,-2.356c0.407,-0.958 0.611,-2.579 0.611,-4.864l0,-8.712c0,-1.344 -0.148,-2.185 -0.445,-2.524c-0.412,-0.465 -1.026,-0.698 -1.84,-0.698l-0.81,0Z" style="fill:#fbd585;fill-rule:nonzero;"/><path d="M90.549,0.492l0,0.587c-0.761,0.138 -1.338,0.381 -1.729,0.73c-0.561,0.518 -1.058,1.312 -1.492,2.38l-7.506,18.313l-0.587,0l-8.062,-18.551c-0.413,-0.952 -0.703,-1.534 -0.873,-1.745c-0.264,-0.328 -0.59,-0.585 -0.976,-0.77c-0.386,-0.185 -0.907,-0.304 -1.563,-0.357l0,-0.587l8.792,0l0,0.587c-0.995,0.095 -1.64,0.265 -1.936,0.508c-0.297,0.243 -0.445,0.555 -0.445,0.936c0,0.529 0.244,1.354 0.73,2.476l5.475,12.616l5.078,-12.458c0.498,-1.227 0.746,-2.078 0.746,-2.554c0,-0.307 -0.153,-0.601 -0.46,-0.881c-0.307,-0.281 -0.825,-0.479 -1.555,-0.595c-0.053,-0.011 -0.143,-0.027 -0.27,-0.048l0,-0.587l6.633,0Z" style="fill:#fbd585;fill-rule:nonzero;"/><path d="M100.658,10.077l7.935,7.887c1.301,1.301 2.412,2.187 3.332,2.658c0.92,0.471 1.841,0.738 2.761,0.801l0,0.587l-10.235,0l0,-0.587c0.613,0 1.055,-0.103 1.325,-0.309c0.27,-0.206 0.404,-0.437 0.404,-0.69c0,-0.254 -0.05,-0.482 -0.15,-0.683c-0.101,-0.201 -0.431,-0.576 -0.992,-1.126l-7.427,-7.348l0,6.935c0,1.09 0.069,1.809 0.206,2.158c0.106,0.265 0.328,0.492 0.667,0.682c0.455,0.254 0.936,0.381 1.444,0.381l0.73,0l0,0.587l-9.172,0l0,-0.587l0.761,0c0.889,0 1.534,-0.259 1.936,-0.777c0.254,-0.339 0.381,-1.153 0.381,-2.444l0,-13.901c0,-1.09 -0.069,-1.815 -0.206,-2.175c-0.106,-0.253 -0.323,-0.476 -0.651,-0.666c-0.465,-0.254 -0.952,-0.381 -1.46,-0.381l-0.761,0l0,-0.587l9.172,0l0,0.587l-0.73,0c-0.497,0 -0.979,0.122 -1.444,0.365c-0.328,0.169 -0.556,0.423 -0.682,0.762c-0.127,0.338 -0.191,1.037 -0.191,2.095l0,6.585c0.212,-0.201 0.936,-0.873 2.174,-2.015c3.142,-2.878 5.041,-4.798 5.697,-5.761c0.286,-0.423 0.429,-0.793 0.429,-1.11c0,-0.244 -0.111,-0.458 -0.334,-0.643c-0.222,-0.185 -0.597,-0.278 -1.126,-0.278l-0.492,0l0,-0.587l7.903,0l0,0.587c-0.466,0.011 -0.889,0.074 -1.27,0.191c-0.381,0.116 -0.846,0.341 -1.396,0.674c-0.551,0.333 -1.228,0.87 -2.032,1.611c-0.232,0.211 -1.306,1.296 -3.221,3.253l-3.285,3.269Z" style="fill:#fbd585;fill-rule:nonzero;"/><path d="M126.302,0c2.793,0 5.214,1.061 7.261,3.182c2.047,2.121 3.07,4.768 3.07,7.942c0,3.269 -1.031,5.983 -3.094,8.141c-2.063,2.158 -4.56,3.237 -7.49,3.237c-2.963,0 -5.451,-1.052 -7.467,-3.158c-2.015,-2.105 -3.023,-4.829 -3.023,-8.172c0,-3.417 1.164,-6.205 3.491,-8.363c2.021,-1.873 4.438,-2.809 7.252,-2.809Zm-0.301,1.158c-1.925,0 -3.47,0.715 -4.634,2.143c-1.449,1.777 -2.174,4.38 -2.174,7.807c0,3.513 0.751,6.216 2.254,8.11c1.153,1.438 2.676,2.158 4.57,2.158c2.021,0 3.689,-0.788 5.007,-2.365c1.317,-1.576 1.975,-4.062 1.975,-7.458c0,-3.682 -0.724,-6.427 -2.174,-8.236c-1.164,-1.439 -2.772,-2.159 -4.824,-2.159Z" style="fill:#fbd585;fill-rule:nonzero;"/><path d="M160.961,0.492l0,0.587c-0.762,0.138 -1.339,0.381 -1.73,0.73c-0.561,0.518 -1.058,1.312 -1.492,2.38l-7.506,18.313l-0.587,0l-8.062,-18.551c-0.412,-0.952 -0.703,-1.534 -0.872,-1.745c-0.265,-0.328 -0.59,-0.585 -0.976,-0.77c-0.386,-0.185 -0.907,-0.304 -1.563,-0.357l0,-0.587l8.791,0l0,0.587c-0.994,0.095 -1.64,0.265 -1.936,0.508c-0.296,0.243 -0.444,0.555 -0.444,0.936c0,0.529 0.243,1.354 0.73,2.476l5.475,12.616l5.078,-12.458c0.497,-1.227 0.746,-2.078 0.746,-2.554c0,-0.307 -0.154,-0.601 -0.461,-0.881c-0.306,-0.281 -0.825,-0.479 -1.555,-0.595c-0.053,-0.011 -0.143,-0.027 -0.27,-0.048l0,-0.587l6.634,0Z" style="fill:#fbd585;fill-rule:nonzero;"/><path d="M173.243,0c2.793,0 5.213,1.061 7.261,3.182c2.047,2.121 3.07,4.768 3.07,7.942c0,3.269 -1.031,5.983 -3.094,8.141c-2.063,2.158 -4.56,3.237 -7.49,3.237c-2.963,0 -5.452,-1.052 -7.467,-3.158c-2.015,-2.105 -3.023,-4.829 -3.023,-8.172c0,-3.417 1.164,-6.205 3.491,-8.363c2.021,-1.873 4.438,-2.809 7.252,-2.809Zm-0.301,1.158c-1.926,0 -3.47,0.715 -4.634,2.143c-1.449,1.777 -2.174,4.38 -2.174,7.807c0,3.513 0.751,6.216 2.253,8.11c1.154,1.438 2.677,2.158 4.571,2.158c2.02,0 3.689,-0.788 5.006,-2.365c1.318,-1.576 1.976,-4.062 1.976,-7.458c0,-3.682 -0.725,-6.427 -2.174,-8.236c-1.164,-1.439 -2.772,-2.159 -4.824,-2.159Z" style="fill:#fbd585;fill-rule:nonzero;"/><path d="M5.474,26.941c1.16,0 2.165,0.44 3.015,1.321c0.851,0.881 1.276,1.981 1.276,3.299c0,1.358 -0.429,2.485 -1.285,3.382c-0.857,0.896 -1.894,1.344 -3.112,1.344c-1.23,0 -2.264,-0.437 -3.101,-1.311c-0.837,-0.875 -1.255,-2.006 -1.255,-3.395c0,-1.419 0.483,-2.577 1.45,-3.474c0.839,-0.777 1.843,-1.166 3.012,-1.166Zm-0.125,0.481c-0.8,0 -1.442,0.297 -1.925,0.89c-0.602,0.738 -0.903,1.819 -0.903,3.243c0,1.459 0.312,2.581 0.936,3.368c0.479,0.597 1.112,0.896 1.898,0.896c0.84,0 1.533,-0.327 2.08,-0.982c0.547,-0.655 0.82,-1.687 0.82,-3.098c0,-1.529 -0.301,-2.669 -0.903,-3.421c-0.483,-0.597 -1.151,-0.896 -2.003,-0.896Z" style="fill:#fbd585;fill-rule:nonzero;"/><path d="M10.108,27.145l2.425,0l5.464,6.703l0,-5.154c0,-0.549 -0.061,-0.892 -0.184,-1.028c-0.163,-0.185 -0.42,-0.277 -0.771,-0.277l-0.31,0l0,-0.244l3.111,0l0,0.244l-0.316,0c-0.378,0 -0.646,0.114 -0.805,0.343c-0.096,0.14 -0.145,0.461 -0.145,0.962l0,7.534l-0.237,0l-5.892,-7.198l0,5.504c0,0.549 0.059,0.892 0.177,1.028c0.167,0.185 0.425,0.277 0.772,0.277l0.316,0l0,0.244l-3.111,0l0,-0.244l0.31,0c0.382,0 0.652,-0.114 0.81,-0.343c0.097,-0.14 0.145,-0.461 0.145,-0.962l0,-6.216c-0.259,-0.303 -0.455,-0.503 -0.589,-0.599c-0.134,-0.097 -0.331,-0.187 -0.59,-0.271c-0.128,-0.039 -0.321,-0.059 -0.58,-0.059l0,-0.244Z" style="fill:#fbd585;fill-rule:nonzero;"/><path d="M27.772,33.611l0.218,0.046l-0.765,2.426l-6.921,0l0,-0.244l0.336,0c0.378,0 0.649,-0.123 0.811,-0.369c0.092,-0.141 0.139,-0.466 0.139,-0.976l0,-5.767c0,-0.558 -0.062,-0.907 -0.185,-1.048c-0.171,-0.193 -0.426,-0.29 -0.765,-0.29l-0.336,0l0,-0.244l4.047,0l0,0.244c-0.474,-0.004 -0.807,0.04 -0.998,0.132c-0.191,0.092 -0.322,0.209 -0.392,0.349c-0.071,0.141 -0.106,0.477 -0.106,1.009l0,5.615c0,0.365 0.035,0.616 0.106,0.752c0.052,0.092 0.134,0.16 0.243,0.204c0.11,0.044 0.453,0.066 1.029,0.066l0.652,0c0.686,0 1.167,-0.051 1.444,-0.152c0.277,-0.101 0.529,-0.28 0.758,-0.537c0.228,-0.257 0.457,-0.662 0.685,-1.216Z" style="fill:#fbd585;fill-rule:nonzero;"/><path d="M32.445,35.839l0,0.244l-3.829,0l0,-0.244l0.316,0c0.369,0 0.637,-0.108 0.804,-0.323c0.106,-0.141 0.159,-0.479 0.159,-1.015l0,-5.774c0,-0.453 -0.029,-0.751 -0.086,-0.896c-0.044,-0.11 -0.134,-0.205 -0.27,-0.284c-0.194,-0.105 -0.396,-0.158 -0.607,-0.158l-0.316,0l0,-0.244l3.829,0l0,0.244l-0.323,0c-0.364,0 -0.63,0.108 -0.797,0.323c-0.11,0.141 -0.165,0.479 -0.165,1.015l0,5.774c0,0.453 0.029,0.751 0.086,0.896c0.044,0.11 0.136,0.205 0.277,0.284c0.189,0.105 0.389,0.158 0.599,0.158l0.323,0Z" style="fill:#fbd585;fill-rule:nonzero;"/><path d="M32.597,27.145l2.426,0l5.464,6.703l0,-5.154c0,-0.549 -0.062,-0.892 -0.185,-1.028c-0.162,-0.185 -0.419,-0.277 -0.771,-0.277l-0.31,0l0,-0.244l3.111,0l0,0.244l-0.316,0c-0.378,0 -0.646,0.114 -0.804,0.343c-0.097,0.14 -0.145,0.461 -0.145,0.962l0,7.534l-0.237,0l-5.893,-7.198l0,5.504c0,0.549 0.059,0.892 0.178,1.028c0.167,0.185 0.424,0.277 0.771,0.277l0.316,0l0,0.244l-3.111,0l0,-0.244l0.31,0c0.382,0 0.653,-0.114 0.811,-0.343c0.097,-0.14 0.145,-0.461 0.145,-0.962l0,-6.216c-0.259,-0.303 -0.456,-0.503 -0.59,-0.599c-0.134,-0.097 -0.331,-0.187 -0.59,-0.271c-0.127,-0.039 -0.321,-0.059 -0.58,-0.059l0,-0.244Z" style="fill:#fbd585;fill-rule:nonzero;"/><path d="M45.345,27.633l0,3.533l1.964,0c0.509,0 0.85,-0.077 1.021,-0.231c0.229,-0.202 0.356,-0.558 0.383,-1.068l0.244,0l0,3.111l-0.244,0c-0.062,-0.435 -0.123,-0.714 -0.185,-0.837c-0.079,-0.154 -0.209,-0.274 -0.389,-0.362c-0.18,-0.088 -0.457,-0.132 -0.83,-0.132l-1.964,0l0,2.946c0,0.396 0.017,0.636 0.052,0.722c0.035,0.086 0.097,0.154 0.185,0.204c0.088,0.051 0.255,0.076 0.501,0.076l1.516,0c0.505,0 0.872,-0.035 1.1,-0.105c0.229,-0.071 0.449,-0.209 0.66,-0.416c0.272,-0.272 0.551,-0.683 0.837,-1.232l0.263,0l-0.771,2.241l-6.888,0l0,-0.244l0.317,0c0.211,0 0.411,-0.051 0.599,-0.152c0.141,-0.07 0.237,-0.175 0.287,-0.316c0.051,-0.141 0.076,-0.428 0.076,-0.863l0,-5.807c0,-0.567 -0.057,-0.917 -0.171,-1.048c-0.159,-0.176 -0.422,-0.264 -0.791,-0.264l-0.317,0l0,-0.244l6.888,0l0.099,1.958l-0.257,0c-0.092,-0.47 -0.194,-0.793 -0.307,-0.969c-0.112,-0.176 -0.277,-0.31 -0.497,-0.402c-0.176,-0.066 -0.486,-0.099 -0.93,-0.099l-2.451,0Z" style="fill:#fbd585;fill-rule:nonzero;"/><path d="M59.081,26.941c1.16,0 2.165,0.44 3.015,1.321c0.851,0.881 1.276,1.981 1.276,3.299c0,1.358 -0.429,2.485 -1.286,3.382c-0.857,0.896 -1.894,1.344 -3.111,1.344c-1.23,0 -2.264,-0.437 -3.101,-1.311c-0.837,-0.875 -1.256,-2.006 -1.256,-3.395c0,-1.419 0.484,-2.577 1.451,-3.474c0.839,-0.777 1.843,-1.166 3.012,-1.166Zm-0.125,0.481c-0.8,0 -1.442,0.297 -1.925,0.89c-0.602,0.738 -0.903,1.819 -0.903,3.243c0,1.459 0.312,2.581 0.936,3.368c0.479,0.597 1.112,0.896 1.898,0.896c0.839,0 1.533,-0.327 2.08,-0.982c0.547,-0.655 0.82,-1.687 0.82,-3.098c0,-1.529 -0.301,-2.669 -0.903,-3.421c-0.483,-0.597 -1.151,-0.896 -2.003,-0.896Z" style="fill:#fbd585;fill-rule:nonzero;"/><path d="M70.128,31.522c0.619,0.132 1.083,0.342 1.39,0.632c0.427,0.405 0.64,0.899 0.64,1.483c0,0.444 -0.141,0.869 -0.422,1.276c-0.281,0.406 -0.667,0.703 -1.157,0.89c-0.49,0.186 -1.238,0.28 -2.244,0.28l-4.219,0l0,-0.244l0.337,0c0.373,0 0.641,-0.119 0.804,-0.356c0.101,-0.154 0.151,-0.481 0.151,-0.982l0,-5.774c0,-0.554 -0.063,-0.903 -0.191,-1.048c-0.171,-0.193 -0.426,-0.29 -0.764,-0.29l-0.337,0l0,-0.244l3.863,0c0.721,0 1.298,0.053 1.733,0.158c0.66,0.158 1.163,0.439 1.51,0.841c0.347,0.402 0.521,0.864 0.521,1.387c0,0.448 -0.137,0.849 -0.409,1.203c-0.273,0.354 -0.675,0.616 -1.206,0.788Zm-3.454,-0.356c0.162,0.031 0.348,0.054 0.557,0.069c0.209,0.015 0.438,0.023 0.689,0.023c0.641,0 1.123,-0.069 1.446,-0.208c0.323,-0.138 0.571,-0.35 0.742,-0.636c0.171,-0.285 0.257,-0.597 0.257,-0.936c0,-0.523 -0.213,-0.969 -0.639,-1.338c-0.427,-0.369 -1.048,-0.553 -1.866,-0.553c-0.439,0 -0.835,0.048 -1.186,0.145l0,3.434Zm0,4.271c0.51,0.119 1.013,0.178 1.509,0.178c0.796,0 1.402,-0.179 1.819,-0.537c0.418,-0.358 0.627,-0.801 0.627,-1.328c0,-0.348 -0.095,-0.682 -0.284,-1.002c-0.189,-0.321 -0.496,-0.574 -0.923,-0.758c-0.426,-0.185 -0.953,-0.277 -1.581,-0.277c-0.273,0 -0.506,0.004 -0.699,0.013c-0.193,0.009 -0.349,0.024 -0.468,0.046l0,3.665Z" style="fill:#fbd585;fill-rule:nonzero;"/><path d="M81.023,26.941l0.204,3.038l-0.204,0c-0.272,-0.909 -0.661,-1.564 -1.167,-1.964c-0.505,-0.4 -1.111,-0.6 -1.819,-0.6c-0.593,0 -1.129,0.151 -1.608,0.452c-0.479,0.301 -0.856,0.781 -1.13,1.44c-0.275,0.659 -0.412,1.479 -0.412,2.459c0,0.808 0.129,1.509 0.388,2.102c0.26,0.593 0.65,1.048 1.17,1.365c0.521,0.316 1.115,0.474 1.783,0.474c0.58,0 1.092,-0.124 1.536,-0.372c0.444,-0.249 0.932,-0.742 1.463,-1.48l0.205,0.132c-0.448,0.795 -0.971,1.377 -1.569,1.747c-0.598,0.369 -1.307,0.553 -2.129,0.553c-1.481,0 -2.628,-0.549 -3.441,-1.648c-0.606,-0.817 -0.909,-1.779 -0.909,-2.887c0,-0.892 0.2,-1.711 0.6,-2.458c0.399,-0.747 0.95,-1.326 1.651,-1.737c0.701,-0.411 1.466,-0.616 2.297,-0.616c0.646,0 1.283,0.158 1.911,0.474c0.185,0.097 0.317,0.145 0.396,0.145c0.118,0 0.222,-0.041 0.31,-0.125c0.114,-0.119 0.195,-0.283 0.243,-0.494l0.231,0Z" style="fill:#fbd585;fill-rule:nonzero;"/><path d="M84.675,31.291l4.152,0l0,-2.557c0,-0.457 -0.028,-0.758 -0.086,-0.903c-0.043,-0.11 -0.136,-0.205 -0.276,-0.284c-0.189,-0.105 -0.389,-0.158 -0.6,-0.158l-0.317,0l0,-0.244l3.823,0l0,0.244l-0.316,0c-0.211,0 -0.411,0.051 -0.6,0.152c-0.14,0.07 -0.236,0.176 -0.287,0.319c-0.05,0.143 -0.075,0.434 -0.075,0.874l0,5.767c0,0.453 0.028,0.751 0.085,0.896c0.044,0.11 0.134,0.205 0.271,0.284c0.193,0.105 0.395,0.158 0.606,0.158l0.316,0l0,0.244l-3.823,0l0,-0.244l0.317,0c0.365,0 0.63,-0.108 0.797,-0.323c0.11,-0.141 0.165,-0.479 0.165,-1.015l0,-2.722l-4.152,0l0,2.722c0,0.453 0.028,0.751 0.085,0.896c0.044,0.11 0.137,0.205 0.277,0.284c0.189,0.105 0.389,0.158 0.6,0.158l0.323,0l0,0.244l-3.83,0l0,-0.244l0.317,0c0.369,0 0.637,-0.108 0.804,-0.323c0.105,-0.141 0.158,-0.479 0.158,-1.015l0,-5.767c0,-0.457 -0.028,-0.758 -0.086,-0.903c-0.044,-0.11 -0.134,-0.205 -0.27,-0.284c-0.193,-0.105 -0.395,-0.158 -0.606,-0.158l-0.317,0l0,-0.244l3.83,0l0,0.244l-0.323,0c-0.211,0 -0.411,0.051 -0.6,0.152c-0.136,0.07 -0.231,0.176 -0.283,0.319c-0.053,0.143 -0.079,0.434 -0.079,0.874l0,2.557Z" style="fill:#fbd585;fill-rule:nonzero;"/><path d="M96.585,26.941c1.16,0 2.165,0.44 3.016,1.321c0.85,0.881 1.275,1.981 1.275,3.299c0,1.358 -0.428,2.485 -1.285,3.382c-0.857,0.896 -1.894,1.344 -3.111,1.344c-1.231,0 -2.264,-0.437 -3.102,-1.311c-0.837,-0.875 -1.255,-2.006 -1.255,-3.395c0,-1.419 0.483,-2.577 1.45,-3.474c0.839,-0.777 1.843,-1.166 3.012,-1.166Zm-0.125,0.481c-0.8,0 -1.441,0.297 -1.925,0.89c-0.602,0.738 -0.903,1.819 -0.903,3.243c0,1.459 0.312,2.581 0.936,3.368c0.479,0.597 1.112,0.896 1.898,0.896c0.84,0 1.533,-0.327 2.08,-0.982c0.547,-0.655 0.821,-1.687 0.821,-3.098c0,-1.529 -0.301,-2.669 -0.903,-3.421c-0.484,-0.597 -1.152,-0.896 -2.004,-0.896Z" style="fill:#fbd585;fill-rule:nonzero;"/><path d="M101.627,36.083l0,-0.244l0.337,0c0.377,0 0.645,-0.121 0.804,-0.363c0.096,-0.145 0.145,-0.47 0.145,-0.975l0,-5.774c0,-0.558 -0.062,-0.907 -0.185,-1.048c-0.171,-0.193 -0.426,-0.29 -0.764,-0.29l-0.337,0l0,-0.244l3.639,0c1.336,0 2.352,0.152 3.048,0.455c0.697,0.303 1.257,0.808 1.681,1.516c0.424,0.707 0.636,1.525 0.636,2.452c0,1.243 -0.378,2.283 -1.134,3.118c-0.848,0.931 -2.14,1.397 -3.875,1.397l-3.995,0Zm2.551,-0.646c0.558,0.123 1.026,0.184 1.404,0.184c1.02,0 1.865,-0.358 2.538,-1.074c0.672,-0.716 1.008,-1.687 1.008,-2.913c0,-1.235 -0.336,-2.208 -1.008,-2.92c-0.673,-0.712 -1.536,-1.068 -2.591,-1.068c-0.395,0 -0.845,0.064 -1.351,0.191l0,7.6Z" style="fill:#fbd585;fill-rule:nonzero;"/><path d="M120.709,26.941l0,3.091l-0.244,0c-0.079,-0.593 -0.221,-1.066 -0.425,-1.417c-0.204,-0.352 -0.495,-0.631 -0.873,-0.837c-0.378,-0.207 -0.769,-0.31 -1.173,-0.31c-0.457,0 -0.835,0.14 -1.134,0.419c-0.299,0.279 -0.448,0.596 -0.448,0.952c0,0.272 0.094,0.521 0.283,0.745c0.272,0.329 0.921,0.769 1.944,1.318c0.835,0.448 1.405,0.792 1.711,1.032c0.305,0.239 0.54,0.521 0.705,0.847c0.165,0.325 0.247,0.665 0.247,1.021c0,0.677 -0.262,1.26 -0.787,1.75c-0.525,0.49 -1.201,0.735 -2.027,0.735c-0.259,0 -0.503,-0.02 -0.732,-0.059c-0.136,-0.022 -0.418,-0.102 -0.847,-0.241c-0.428,-0.138 -0.7,-0.207 -0.814,-0.207c-0.11,0 -0.196,0.033 -0.26,0.099c-0.064,0.065 -0.111,0.202 -0.142,0.408l-0.244,0l0,-3.065l0.244,0c0.114,0.642 0.268,1.122 0.462,1.44c0.193,0.319 0.488,0.584 0.886,0.795c0.398,0.211 0.834,0.316 1.308,0.316c0.55,0 0.984,-0.145 1.302,-0.435c0.319,-0.29 0.478,-0.633 0.478,-1.028c0,-0.22 -0.06,-0.442 -0.181,-0.666c-0.121,-0.224 -0.309,-0.433 -0.564,-0.626c-0.171,-0.132 -0.639,-0.412 -1.404,-0.84c-0.764,-0.429 -1.308,-0.771 -1.631,-1.025c-0.323,-0.255 -0.568,-0.537 -0.735,-0.844c-0.167,-0.308 -0.25,-0.646 -0.25,-1.015c0,-0.642 0.246,-1.194 0.738,-1.658c0.492,-0.463 1.118,-0.695 1.878,-0.695c0.475,0 0.978,0.116 1.51,0.349c0.246,0.11 0.419,0.165 0.52,0.165c0.115,0 0.208,-0.034 0.281,-0.102c0.072,-0.068 0.13,-0.206 0.174,-0.412l0.244,0Z" style="fill:#fbd585;fill-rule:nonzero;"/><path d="M130.339,26.941c1.16,0 2.165,0.44 3.015,1.321c0.851,0.881 1.276,1.981 1.276,3.299c0,1.358 -0.429,2.485 -1.285,3.382c-0.857,0.896 -1.894,1.344 -3.111,1.344c-1.231,0 -2.265,-0.437 -3.102,-1.311c-0.837,-0.875 -1.255,-2.006 -1.255,-3.395c0,-1.419 0.483,-2.577 1.45,-3.474c0.839,-0.777 1.843,-1.166 3.012,-1.166Zm-0.125,0.481c-0.8,0 -1.442,0.297 -1.925,0.89c-0.602,0.738 -0.903,1.819 -0.903,3.243c0,1.459 0.312,2.581 0.936,3.368c0.479,0.597 1.112,0.896 1.898,0.896c0.84,0 1.533,-0.327 2.08,-0.982c0.547,-0.655 0.82,-1.687 0.82,-3.098c0,-1.529 -0.301,-2.669 -0.903,-3.421c-0.483,-0.597 -1.151,-0.896 -2.003,-0.896Z" style="fill:#fbd585;fill-rule:nonzero;"/><path d="M141.386,31.522c0.62,0.132 1.083,0.342 1.391,0.632c0.426,0.405 0.639,0.899 0.639,1.483c0,0.444 -0.141,0.869 -0.422,1.276c-0.281,0.406 -0.667,0.703 -1.157,0.89c-0.49,0.186 -1.238,0.28 -2.244,0.28l-4.218,0l0,-0.244l0.336,0c0.373,0 0.641,-0.119 0.804,-0.356c0.101,-0.154 0.152,-0.481 0.152,-0.982l0,-5.774c0,-0.554 -0.064,-0.903 -0.192,-1.048c-0.171,-0.193 -0.426,-0.29 -0.764,-0.29l-0.336,0l0,-0.244l3.862,0c0.721,0 1.299,0.053 1.734,0.158c0.659,0.158 1.162,0.439 1.509,0.841c0.347,0.402 0.521,0.864 0.521,1.387c0,0.448 -0.136,0.849 -0.409,1.203c-0.272,0.354 -0.674,0.616 -1.206,0.788Zm-3.454,-0.356c0.163,0.031 0.348,0.054 0.557,0.069c0.209,0.015 0.438,0.023 0.689,0.023c0.641,0 1.124,-0.069 1.447,-0.208c0.323,-0.138 0.57,-0.35 0.741,-0.636c0.172,-0.285 0.257,-0.597 0.257,-0.936c0,-0.523 -0.213,-0.969 -0.639,-1.338c-0.426,-0.369 -1.048,-0.553 -1.865,-0.553c-0.44,0 -0.835,0.048 -1.187,0.145l0,3.434Zm0,4.271c0.51,0.119 1.013,0.178 1.51,0.178c0.795,0 1.401,-0.179 1.819,-0.537c0.417,-0.358 0.626,-0.801 0.626,-1.328c0,-0.348 -0.095,-0.682 -0.284,-1.002c-0.189,-0.321 -0.496,-0.574 -0.922,-0.758c-0.427,-0.185 -0.954,-0.277 -1.582,-0.277c-0.273,0 -0.506,0.004 -0.699,0.013c-0.193,0.009 -0.349,0.024 -0.468,0.046l0,3.665Z" style="fill:#fbd585;fill-rule:nonzero;"/><path d="M150.594,27.389l0,-0.244l3.164,0l0,0.244l-0.336,0c-0.352,0 -0.622,0.147 -0.811,0.442c-0.092,0.136 -0.139,0.452 -0.139,0.949l0,3.625c0,0.896 -0.089,1.592 -0.266,2.086c-0.178,0.494 -0.528,0.918 -1.049,1.272c-0.52,0.354 -1.229,0.531 -2.125,0.531c-0.976,0 -1.716,-0.169 -2.221,-0.508c-0.506,-0.338 -0.864,-0.793 -1.075,-1.364c-0.14,-0.391 -0.211,-1.125 -0.211,-2.202l0,-3.493c0,-0.549 -0.076,-0.91 -0.227,-1.081c-0.152,-0.171 -0.397,-0.257 -0.735,-0.257l-0.336,0l0,-0.244l3.862,0l0,0.244l-0.342,0c-0.37,0 -0.633,0.116 -0.791,0.349c-0.11,0.159 -0.165,0.488 -0.165,0.989l0,3.895c0,0.348 0.032,0.745 0.095,1.193c0.064,0.449 0.179,0.798 0.346,1.048c0.167,0.251 0.408,0.457 0.722,0.62c0.314,0.163 0.7,0.244 1.157,0.244c0.584,0 1.107,-0.127 1.569,-0.382c0.461,-0.255 0.776,-0.581 0.945,-0.979c0.17,-0.398 0.254,-1.071 0.254,-2.02l0,-3.619c0,-0.558 -0.061,-0.907 -0.184,-1.048c-0.172,-0.193 -0.427,-0.29 -0.765,-0.29l-0.336,0Z" style="fill:#fbd585;fill-rule:nonzero;"/><path d="M163.486,27.145l0,0.244c-0.316,0.057 -0.555,0.158 -0.718,0.303c-0.233,0.215 -0.439,0.545 -0.62,0.989l-3.117,7.606l-0.244,0l-3.348,-7.705c-0.172,-0.395 -0.293,-0.637 -0.363,-0.725c-0.11,-0.136 -0.245,-0.243 -0.405,-0.32c-0.161,-0.077 -0.377,-0.126 -0.65,-0.148l0,-0.244l3.652,0l0,0.244c-0.413,0.04 -0.681,0.11 -0.804,0.211c-0.123,0.101 -0.185,0.231 -0.185,0.389c0,0.219 0.101,0.562 0.303,1.028l2.274,5.24l2.11,-5.174c0.206,-0.51 0.309,-0.864 0.309,-1.061c0,-0.128 -0.063,-0.25 -0.191,-0.366c-0.127,-0.117 -0.342,-0.199 -0.646,-0.247c-0.022,-0.005 -0.059,-0.011 -0.112,-0.02l0,-0.244l2.755,0Z" style="fill:#fbd585;fill-rule:nonzero;"/><path d="M168.588,26.941c1.16,0 2.165,0.44 3.016,1.321c0.85,0.881 1.275,1.981 1.275,3.299c0,1.358 -0.428,2.485 -1.285,3.382c-0.857,0.896 -1.894,1.344 -3.111,1.344c-1.231,0 -2.264,-0.437 -3.102,-1.311c-0.837,-0.875 -1.255,-2.006 -1.255,-3.395c0,-1.419 0.483,-2.577 1.45,-3.474c0.839,-0.777 1.843,-1.166 3.012,-1.166Zm-0.125,0.481c-0.8,0 -1.441,0.297 -1.925,0.89c-0.602,0.738 -0.903,1.819 -0.903,3.243c0,1.459 0.312,2.581 0.936,3.368c0.479,0.597 1.112,0.896 1.898,0.896c0.84,0 1.533,-0.327 2.08,-0.982c0.547,-0.655 0.821,-1.687 0.821,-3.098c0,-1.529 -0.301,-2.669 -0.903,-3.421c-0.484,-0.597 -1.152,-0.896 -2.004,-0.896Z" style="fill:#fbd585;fill-rule:nonzero;"/><path d="M179.839,27.389l0,-0.244l3.164,0l0,0.244l-0.336,0c-0.351,0 -0.622,0.147 -0.811,0.442c-0.092,0.136 -0.138,0.452 -0.138,0.949l0,3.625c0,0.896 -0.089,1.592 -0.267,2.086c-0.178,0.494 -0.527,0.918 -1.048,1.272c-0.521,0.354 -1.229,0.531 -2.126,0.531c-0.975,0 -1.716,-0.169 -2.221,-0.508c-0.505,-0.338 -0.863,-0.793 -1.074,-1.364c-0.141,-0.391 -0.211,-1.125 -0.211,-2.202l0,-3.493c0,-0.549 -0.076,-0.91 -0.228,-1.081c-0.151,-0.171 -0.396,-0.257 -0.735,-0.257l-0.336,0l0,-0.244l3.863,0l0,0.244l-0.343,0c-0.369,0 -0.633,0.116 -0.791,0.349c-0.11,0.159 -0.165,0.488 -0.165,0.989l0,3.895c0,0.348 0.032,0.745 0.096,1.193c0.064,0.449 0.179,0.798 0.346,1.048c0.167,0.251 0.407,0.457 0.722,0.62c0.314,0.163 0.699,0.244 1.156,0.244c0.585,0 1.108,-0.127 1.569,-0.382c0.461,-0.255 0.777,-0.581 0.946,-0.979c0.169,-0.398 0.254,-1.071 0.254,-2.02l0,-3.619c0,-0.558 -0.062,-0.907 -0.185,-1.048c-0.171,-0.193 -0.426,-0.29 -0.764,-0.29l-0.337,0Z" style="fill:#fbd585;fill-rule:nonzero;"/></g></g></svg>