<?xml version="1.0" encoding="UTF-8" standalone="no"?><!DOCTYPE svg PUBLIC "-//W3C//DTD SVG 1.1//EN" "http://www.w3.org/Graphics/SVG/1.1/DTD/svg11.dtd"><svg width="100%" height="100%" viewBox="0 0 137 55" version="1.1" xmlns="http://www.w3.org/2000/svg" xmlns:xlink="http://www.w3.org/1999/xlink" xml:space="preserve" xmlns:serif="http://www.serif.com/" style="fill-rule:evenodd;clip-rule:evenodd;stroke-linejoin:round;stroke-miterlimit:1.41421;"><g><path d="M9.888,15.379c-0.528,0.737 -1.193,1.292 -1.995,1.665c-0.803,0.372 -1.681,0.559 -2.635,0.559c-1.619,0 -2.891,-0.589 -3.816,-1.765c-0.925,-1.177 -1.406,-2.809 -1.442,-4.895l0,-4.166c0,-2.188 0.439,-3.865 1.317,-5.03c0.878,-1.165 2.131,-1.747 3.757,-1.747c1.453,0 2.591,0.435 3.415,1.306c0.824,0.871 1.287,2.126 1.388,3.765l-1.236,0c-0.13,-1.318 -0.486,-2.28 -1.068,-2.888c-0.582,-0.608 -1.411,-0.912 -2.488,-0.912c-1.287,0 -2.25,0.465 -2.89,1.394c-0.639,0.93 -0.959,2.293 -0.959,4.089l0,3.953c0,1.789 0.352,3.177 1.057,4.166c0.705,0.988 1.693,1.482 2.965,1.482c1.381,0 2.508,-0.474 3.383,-1.423l0,-4.46l-3.459,0l0,-1.259l4.706,0l0,6.166Z" style="fill:#fff;fill-rule:nonzero;"/><path d="M18.355,10.237l-3.686,0l0,7.13l-1.247,0l0,-17.132l4.326,0c1.438,0 2.553,0.445 3.345,1.336c0.791,0.89 1.187,2.128 1.187,3.712c0,1.106 -0.246,2.077 -0.738,2.912c-0.491,0.836 -1.152,1.414 -1.984,1.736l3.285,7.283l0,0.153l-1.322,0l-3.166,-7.13Zm-3.686,-1.247l3.296,0c0.932,0 1.677,-0.348 2.233,-1.042c0.557,-0.694 0.835,-1.582 0.835,-2.665c0,-1.2 -0.289,-2.13 -0.867,-2.789c-0.579,-0.658 -1.388,-0.988 -2.429,-0.988l-3.068,0l0,7.484Z" style="fill:#fff;fill-rule:nonzero;"/><path d="M32.829,12.578l-5.92,0l-1.344,4.789l-1.29,0l5.03,-17.132l1.149,0l5.031,17.132l-1.29,0l-1.366,-4.789Zm-5.562,-1.259l5.204,0l-2.602,-9.189l-2.602,9.189Z" style="fill:#fff;fill-rule:nonzero;"/><path d="M39.464,0.235l4.781,15.073l4.803,-15.073l1.637,0l0,17.132l-1.236,0l0,-7.424l0.108,-7.472l-4.835,14.896l-0.954,0l-4.814,-14.825l0.109,7.354l0,7.471l-1.236,0l0,-17.132l1.637,0Z" style="fill:#fff;fill-rule:nonzero;"/><path d="M64.215,10.66c0,2.212 -0.446,3.923 -1.338,5.131c-0.893,1.208 -2.145,1.812 -3.757,1.812c-1.597,0 -2.85,-0.604 -3.757,-1.812c-0.907,-1.208 -1.364,-2.907 -1.371,-5.095l0,-3.73c0,-2.205 0.451,-3.917 1.355,-5.136c0.903,-1.22 2.154,-1.83 3.751,-1.83c1.619,0 2.877,0.612 3.773,1.836c0.896,1.223 1.344,2.945 1.344,5.165l0,3.659Zm-1.246,-3.718c0,-1.875 -0.333,-3.283 -0.998,-4.224c-0.665,-0.941 -1.622,-1.412 -2.873,-1.412c-1.207,0 -2.15,0.461 -2.83,1.383c-0.679,0.921 -1.026,2.3 -1.04,4.136l0,3.835c0,1.883 0.343,3.297 1.03,4.242c0.686,0.945 1.64,1.418 2.862,1.418c1.257,0 2.213,-0.471 2.867,-1.412c0.655,-0.941 0.982,-2.357 0.982,-4.248l0,-3.718Z" style="fill:#fff;fill-rule:nonzero;"/><path d="M74.83,9.39l-6.072,0l0,7.977l-1.236,0l0,-17.132l8.218,0l0,1.271l-6.982,0l0,6.613l6.072,0l0,1.271Z" style="fill:#fff;fill-rule:nonzero;"/><path d="M88.197,10.66c0,2.212 -0.446,3.923 -1.339,5.131c-0.892,1.208 -2.144,1.812 -3.756,1.812c-1.598,0 -2.85,-0.604 -3.757,-1.812c-0.907,-1.208 -1.364,-2.907 -1.371,-5.095l0,-3.73c0,-2.205 0.451,-3.917 1.355,-5.136c0.903,-1.22 2.154,-1.83 3.751,-1.83c1.619,0 2.877,0.612 3.773,1.836c0.896,1.223 1.344,2.945 1.344,5.165l0,3.659Zm-1.246,-3.718c0,-1.875 -0.333,-3.283 -0.998,-4.224c-0.665,-0.941 -1.623,-1.412 -2.873,-1.412c-1.207,0 -2.15,0.461 -2.83,1.383c-0.679,0.921 -1.026,2.3 -1.04,4.136l0,3.835c0,1.883 0.343,3.297 1.03,4.242c0.686,0.945 1.64,1.418 2.862,1.418c1.257,0 2.213,-0.471 2.867,-1.412c0.654,-0.941 0.982,-2.357 0.982,-4.248l0,-3.718Z" style="fill:#fff;fill-rule:nonzero;"/><path d="M101.435,17.367l-1.236,0l-7.448,-14.59l0,14.59l-1.247,0l0,-17.132l1.247,0l7.459,14.614l0,-14.614l1.225,0l0,17.132Z" style="fill:#fff;fill-rule:nonzero;"/><path d="M108.807,9.554l3.936,-9.319l1.42,0l-4.748,10.684l0,6.448l-1.236,0l0,-6.448l-4.738,-10.684l1.453,0l3.913,9.319Z" style="fill:#fff;fill-rule:nonzero;"/><path d="M0.838,54.367l0,-31.194l8,0c3.532,0 6.348,1.157 8.447,3.471c2.099,2.314 3.169,5.484 3.21,9.512l0,5.056c0,4.1 -1.049,7.317 -3.148,9.652c-2.099,2.336 -4.99,3.503 -8.675,3.503l-7.834,0Zm6.109,-25.945l0,20.718l1.828,0c2.037,0 3.471,-0.554 4.302,-1.661c0.831,-1.107 1.267,-3.017 1.309,-5.731l0,-5.42c0,-2.914 -0.395,-4.946 -1.184,-6.096c-0.79,-1.149 -2.134,-1.753 -4.032,-1.81l-2.223,0Z" style="fill:#fa4c29;fill-rule:nonzero;"/><path d="M40.506,40.87l-9.517,0l0,8.27l11.263,0l0,5.227l-17.372,0l0,-31.194l17.33,0l0,5.249l-11.221,0l0,7.37l9.517,0l0,5.078Z" style="fill:#fa4c29;fill-rule:nonzero;"/><path d="M58.543,46.183c0,-1.271 -0.315,-2.232 -0.945,-2.882c-0.63,-0.649 -1.777,-1.324 -3.439,-2.024c-3.034,-1.186 -5.216,-2.575 -6.546,-4.167c-1.33,-1.593 -1.995,-3.475 -1.995,-5.646c0,-2.628 0.904,-4.738 2.712,-6.331c1.808,-1.592 4.104,-2.389 6.889,-2.389c1.856,0 3.511,0.404 4.966,1.211c1.455,0.807 2.573,1.946 3.356,3.417c0.783,1.471 1.174,3.142 1.174,5.013l-6.088,0c0,-1.456 -0.302,-2.567 -0.904,-3.331c-0.603,-0.764 -1.472,-1.146 -2.608,-1.146c-1.067,0 -1.898,0.325 -2.494,0.975c-0.596,0.649 -0.893,1.524 -0.893,2.624c0,0.857 0.332,1.632 0.997,2.325c0.665,0.692 1.843,1.41 3.533,2.153c2.95,1.1 5.094,2.449 6.431,4.049c1.337,1.6 2.005,3.635 2.005,6.106c0,2.714 -0.838,4.835 -2.514,6.363c-1.676,1.529 -3.955,2.293 -6.837,2.293c-1.953,0 -3.733,-0.414 -5.34,-1.243c-1.607,-0.828 -2.864,-2.014 -3.772,-3.556c-0.907,-1.543 -1.361,-3.364 -1.361,-5.464l6.13,0c0,1.8 0.34,3.107 1.019,3.921c0.678,0.814 1.787,1.221 3.324,1.221c2.134,0 3.2,-1.164 3.2,-3.492Z" style="fill:#fa4c29;fill-rule:nonzero;"/><path d="M77.266,42.327l-2.41,3.128l0,8.912l-6.11,0l0,-31.194l6.11,0l0,13.605l1.932,-3.364l5.632,-10.241l7.48,0l-8.665,13.712l8.811,17.482l-7.252,0l-5.528,-12.04Z" style="fill:#fa4c29;fill-rule:nonzero;"/><path d="M101.412,37.185l4.551,-14.012l6.65,0l-8.104,19.882l0,11.312l-6.193,0l0,-11.312l-8.125,-19.882l6.65,0l4.571,14.012Z" style="fill:#fa4c29;fill-rule:nonzero;"/><path d="M114.517,53.508c0,-0.282 0.082,-0.519 0.244,-0.712c0.163,-0.192 0.389,-0.288 0.678,-0.288c0.289,0 0.517,0.096 0.683,0.288c0.166,0.193 0.249,0.43 0.249,0.712c0,0.275 -0.083,0.502 -0.249,0.683c-0.166,0.18 -0.394,0.27 -0.683,0.27c-0.289,0 -0.515,-0.09 -0.678,-0.27c-0.162,-0.181 -0.244,-0.408 -0.244,-0.683Z" style="fill:#fa4c29;fill-rule:nonzero;"/><path d="M123.559,53.379c0.839,0 1.482,-0.254 1.93,-0.762c0.448,-0.508 0.69,-1.238 0.727,-2.191l1.16,0c-0.058,1.302 -0.441,2.323 -1.15,3.065c-0.708,0.741 -1.597,1.112 -2.667,1.112c-1.395,0 -2.448,-0.485 -3.16,-1.454c-0.712,-0.968 -1.075,-2.406 -1.09,-4.312l0,-1.553c0,-1.946 0.356,-3.412 1.068,-4.401c0.712,-0.988 1.769,-1.482 3.172,-1.482c1.163,0 2.081,0.398 2.753,1.194c0.673,0.796 1.03,1.908 1.074,3.336l-1.16,0c-0.037,-1.051 -0.282,-1.865 -0.738,-2.442c-0.455,-0.576 -1.098,-0.865 -1.929,-0.865c-1.041,0 -1.806,0.38 -2.293,1.14c-0.488,0.76 -0.732,1.928 -0.732,3.503l0,1.446c0,1.63 0.245,2.815 0.737,3.555c0.491,0.741 1.258,1.111 2.298,1.111Z" style="fill:#fa4c29;fill-rule:nonzero;"/><path d="M130.758,53.144l6.332,0l0,1.223l-7.763,0l0,-1.069l5.931,-10.438l-5.768,0l0,-1.224l7.231,0l0,1.061l-5.963,10.447Z" style="fill:#fa4c29;fill-rule:nonzero;"/></g></svg>