<?xml version="1.0" encoding="iso-8859-1"?>
<!-- Generator: Adobe Illustrator 19.0.0, SVG Export Plug-In . SVG Version: 6.00 Build 0)  -->
<svg xmlns="http://www.w3.org/2000/svg" xmlns:xlink="http://www.w3.org/1999/xlink" version="1.1" id="Capa_1" x="0px" y="0px" viewBox="0 0 512 512" style="enable-background:new 0 0 512 512;" xml:space="preserve" width="512px" height="512px">
<g>
	<g>
		<rect y="326.813" width="512" height="46" fill="#643c2b"/>
	</g>
</g>
<g>
	<g>
		<path d="M490.667,141.651l-4.385,4.346c-1.151,1.141-28.652,27.938-68.732,27.938c-41.748,0-79.815-29.007-80.173-29.283    l-7.026-5.465l-8.163,3.549c-5.213,2.267-10.672,4.365-16.322,6.324l15.811,40.441l-27.941,10.924l-16.77-42.896    c-7.476,1.854-15.148,3.535-22.943,5.081l15.793,40.393l-27.941,10.924l-17.997-46.03c-8.011,1.248-16.056,2.399-24.066,3.48    l16.171,41.36l-27.941,10.924l-18.909-48.364c-2.11,0.26-4.214,0.518-6.304,0.775c-8.374,1.028-16.63,2.044-24.688,3.087    c13.845,22.105,31.737,61.367,32.748,117.659H512V141.651H490.667z" fill="#643c2b"/>
	</g>
</g>
<g>
	<g>
		<path d="M104.977,183.951c-13.369,2.224-25.566,4.742-35.964,7.814C33.988,202.114,17.1,221.839,9.102,236.564    C0.256,252.85,0,266.844,0,268.386v28.432h140.881C139.619,234.265,114.975,196.673,104.977,183.951z" fill="#643c2b"/>
	</g>
</g>
<g>
</g>
<g>
</g>
<g>
</g>
<g>
</g>
<g>
</g>
<g>
</g>
<g>
</g>
<g>
</g>
<g>
</g>
<g>
</g>
<g>
</g>
<g>
</g>
<g>
</g>
<g>
</g>
<g>
</g>
</svg>
