<?xml version="1.0" encoding="UTF-8" standalone="no"?><!DOCTYPE svg PUBLIC "-//W3C//DTD SVG 1.1//EN" "http://www.w3.org/Graphics/SVG/1.1/DTD/svg11.dtd"><svg width="100%" height="100%" viewBox="0 0 54 42" version="1.1" xmlns="http://www.w3.org/2000/svg" xmlns:xlink="http://www.w3.org/1999/xlink" xml:space="preserve" xmlns:serif="http://www.serif.com/" style="fill-rule:evenodd;clip-rule:evenodd;stroke-linejoin:round;stroke-miterlimit:1.41421;"><rect id="Artboard1" x="0" y="0" width="54" height="42" style="fill:none;"/><clipPath id="_clip1"><rect id="Artboard11" serif:id="Artboard1" x="0" y="0" width="54" height="42"/></clipPath><g clip-path="url(#_clip1)"><g><g><path d="M20.416,1.368l-11.427,19.793l30.422,17.564l11.427,-19.793l-30.422,-17.564Z" style="fill:#bb47ff;"/><path d="M19.921,5.489l-7.944,13.759l-5.331,-3.078l7.944,-13.759l5.331,3.078Z" style="fill:#bb47ff;"/><path d="M0.107,3.222c-0.22,0.384 -0.09,0.87 0.292,1.091l3.633,2.1l4.82,17.991l28.865,16.505c0.656,0.379 1.415,0.479 2.142,0.284c0.728,-0.195 1.34,-0.663 1.715,-1.317l11.576,-20.05c0.378,-0.656 0.478,-1.414 0.283,-2.143c-0.195,-0.728 -0.662,-1.339 -1.325,-1.719l-28.519,-15.964l-18.756,5.026l-3.631,-2.097c-0.384,-0.22 -0.873,-0.089 -1.095,0.293Zm13.148,20.014l-1.658,-0.947l-0.086,-0.324c-0.115,-0.427 0.137,-0.879 0.563,-0.993c0.267,-0.072 0.537,-0.006 0.73,0.16l1.247,0.714c0.191,0.11 0.32,0.29 0.373,0.486c0.052,0.196 0.03,0.412 -0.077,0.603c-0.216,0.386 -0.707,0.517 -1.092,0.301Zm4.168,2.381l-1.389,-0.793c-0.382,-0.22 -0.517,-0.706 -0.297,-1.092c0.217,-0.382 0.707,-0.518 1.089,-0.296l1.39,0.792c0.195,0.11 0.324,0.289 0.377,0.489c0.053,0.196 0.03,0.413 -0.08,0.605c-0.218,0.381 -0.707,0.516 -1.09,0.295Zm8.334,4.767l-1.389,-0.796c-0.386,-0.216 -0.518,-0.706 -0.296,-1.09c0.215,-0.385 0.706,-0.516 1.088,-0.299l1.389,0.796c0.196,0.11 0.326,0.29 0.378,0.486c0.053,0.196 0.029,0.412 -0.078,0.602c-0.219,0.387 -0.71,0.519 -1.092,0.301Zm4.166,2.382l-1.391,-0.796c-0.382,-0.216 -0.517,-0.706 -0.296,-1.089c0.221,-0.383 0.706,-0.517 1.093,-0.298l1.389,0.793c0.192,0.111 0.321,0.291 0.375,0.491c0.052,0.196 0.029,0.412 -0.078,0.602c-0.22,0.384 -0.71,0.519 -1.092,0.297Zm4.168,2.382l-1.39,-0.793c-0.386,-0.22 -0.516,-0.706 -0.297,-1.093c0.218,-0.382 0.707,-0.517 1.09,-0.296l1.389,0.792c0.192,0.111 0.325,0.291 0.378,0.49c0.053,0.196 0.03,0.412 -0.081,0.604c-0.217,0.382 -0.707,0.516 -1.089,0.296Zm5.334,1.481c0.053,0.198 0.031,0.418 -0.076,0.604c-0.221,0.386 -0.711,0.518 -1.093,0.301l-1.39,-0.796c-0.381,-0.218 -0.517,-0.708 -0.296,-1.09c0.22,-0.386 0.707,-0.517 1.093,-0.297l1.386,0.793c0.195,0.11 0.323,0.286 0.376,0.485Zm2.046,-4.575c0.192,0.11 0.321,0.29 0.373,0.486c0.054,0.2 0.031,0.416 -0.08,0.609l-0.8,1.386c-0.222,0.383 -0.709,0.514 -1.091,0.292c-0.384,-0.224 -0.515,-0.711 -0.293,-1.093l0.797,-1.387c0.221,-0.383 0.711,-0.514 1.094,-0.293Zm2.4,-4.158c0.192,0.111 0.321,0.291 0.373,0.487c0.054,0.2 0.031,0.416 -0.079,0.608l-0.802,1.387c-0.22,0.382 -0.707,0.513 -1.09,0.292c-0.383,-0.224 -0.514,-0.711 -0.293,-1.094l0.797,-1.387c0.222,-0.382 0.711,-0.513 1.094,-0.293Zm2.4,-4.157c0.192,0.11 0.321,0.29 0.374,0.486c0.053,0.2 0.031,0.416 -0.08,0.609l-0.801,1.386c-0.221,0.383 -0.708,0.514 -1.09,0.292c-0.384,-0.22 -0.515,-0.711 -0.293,-1.093l0.797,-1.387c0.221,-0.379 0.712,-0.51 1.093,-0.293Zm2.402,-4.154c0.191,0.111 0.319,0.287 0.372,0.483c0.053,0.2 0.03,0.417 -0.08,0.608l-0.801,1.388c-0.221,0.381 -0.707,0.512 -1.09,0.293c-0.387,-0.222 -0.518,-0.712 -0.294,-1.096l0.799,-1.383c0.221,-0.382 0.711,-0.513 1.094,-0.293Zm-26.287,7.028c0.189,0.107 0.318,0.287 0.372,0.487c0.052,0.196 0.03,0.412 -0.077,0.602c-0.221,0.383 -0.706,0.517 -1.093,0.297l-1.39,-0.792c-0.381,-0.217 -0.512,-0.708 -0.297,-1.093c0.222,-0.383 0.712,-0.515 1.094,-0.297l1.391,0.796Zm24.334,-9.999l1.398,0.782c0.196,0.11 0.329,0.293 0.383,0.493c0.052,0.192 0.029,0.408 -0.074,0.597c-0.216,0.387 -0.706,0.521 -1.09,0.309l-1.395,-0.783c-0.385,-0.216 -0.525,-0.705 -0.308,-1.09c0.216,-0.386 0.705,-0.521 1.086,-0.308Zm-4.187,-2.343l1.399,0.782c0.195,0.109 0.328,0.288 0.383,0.492c0.051,0.192 0.028,0.408 -0.075,0.598c-0.216,0.385 -0.705,0.521 -1.089,0.308l-1.399,-0.782c-0.386,-0.217 -0.521,-0.705 -0.309,-1.09c0.217,-0.385 0.705,-0.525 1.09,-0.308Zm-4.186,-2.344l1.394,0.783c0.195,0.109 0.328,0.288 0.382,0.491c0.052,0.193 0.033,0.409 -0.073,0.599c-0.217,0.385 -0.706,0.52 -1.092,0.305l-1.393,-0.78c-0.386,-0.216 -0.521,-0.705 -0.309,-1.09c0.217,-0.386 0.705,-0.525 1.091,-0.308Zm-26.69,7.491c-0.426,0.114 -0.866,-0.14 -0.981,-0.567l-0.414,-1.546c-0.114,-0.427 0.14,-0.867 0.566,-0.981c0.43,-0.115 0.867,0.139 0.981,0.566l0.415,1.547c0.114,0.427 -0.137,0.866 -0.567,0.981Zm22.499,-9.834l1.398,0.777c0.196,0.115 0.329,0.293 0.382,0.493c0.052,0.192 0.029,0.409 -0.075,0.598c-0.215,0.386 -0.704,0.524 -1.089,0.308l-1.395,-0.782c-0.385,-0.217 -0.523,-0.702 -0.308,-1.087c0.217,-0.385 0.702,-0.523 1.087,-0.307Zm-18.603,5.822c-2.132,0.571 -4.329,-0.701 -4.899,-2.828c-0.571,-2.132 0.696,-4.328 2.828,-4.899c2.132,-0.572 4.328,0.696 4.899,2.828c0.57,2.128 -0.696,4.328 -2.828,4.899Zm14.416,-8.17l1.398,0.782c0.194,0.11 0.325,0.293 0.379,0.493c0.051,0.192 0.032,0.408 -0.075,0.599c-0.216,0.385 -0.7,0.523 -1.086,0.306l-1.398,-0.782c-0.386,-0.216 -0.522,-0.705 -0.309,-1.09c0.217,-0.385 0.705,-0.52 1.091,-0.308Zm-4.188,-2.344l1.395,0.783c0.195,0.109 0.329,0.292 0.383,0.492c0.051,0.193 0.032,0.408 -0.074,0.598c-0.217,0.385 -0.705,0.525 -1.09,0.309l-1.396,-0.784c-0.385,-0.215 -0.524,-0.704 -0.307,-1.089c0.215,-0.386 0.704,-0.525 1.089,-0.309Zm-3.44,-1.246c0.427,-0.114 0.863,0.142 0.978,0.568c0.114,0.426 -0.136,0.865 -0.563,0.98l-1.546,0.414c-0.427,0.114 -0.867,-0.14 -0.981,-0.566c-0.115,-0.426 0.139,-0.867 0.566,-0.981l1.546,-0.415Zm-4.636,1.243c0.426,-0.115 0.866,0.14 0.98,0.566c0.114,0.426 -0.139,0.867 -0.565,0.981l-1.548,0.415c-0.426,0.114 -0.867,-0.141 -0.981,-0.567c-0.114,-0.426 0.141,-0.867 0.567,-0.981l1.547,-0.414Z" style="fill:#8100cc;fill-rule:nonzero;"/></g><path d="M35.567,17.522c0.857,0.494 1.391,1.118 1.603,1.87c0.213,0.753 0.079,1.545 -0.401,2.376c-0.328,0.567 -0.864,1.03 -1.609,1.389c-0.376,0.186 -0.769,0.329 -1.179,0.428l-5.508,1.38c-0.132,0.025 -0.254,0.005 -0.368,-0.061c-0.113,-0.065 -0.192,-0.161 -0.237,-0.288l-1.559,-5.46c-0.105,-0.313 -0.176,-0.698 -0.214,-1.157c-0.072,-0.864 0.06,-1.586 0.394,-2.166c0.48,-0.831 1.099,-1.343 1.857,-1.536c0.758,-0.192 1.565,-0.041 2.421,0.454c0.441,0.254 0.82,0.675 1.137,1.261c0.224,0.398 0.408,0.849 0.554,1.353c0.51,-0.126 0.992,-0.192 1.449,-0.197c0.666,-0.019 1.219,0.099 1.66,0.354Z" style="fill:#fff;fill-rule:nonzero;"/></g></g></svg>