<?xml version="1.0" encoding="UTF-8" standalone="no"?><!DOCTYPE svg PUBLIC "-//W3C//DTD SVG 1.1//EN" "http://www.w3.org/Graphics/SVG/1.1/DTD/svg11.dtd"><svg width="100%" height="100%" viewBox="0 0 32 42" version="1.1" xmlns="http://www.w3.org/2000/svg" xmlns:xlink="http://www.w3.org/1999/xlink" xml:space="preserve" xmlns:serif="http://www.serif.com/" style="fill-rule:evenodd;clip-rule:evenodd;stroke-linejoin:round;stroke-miterlimit:1.41421;"><rect id="Artboard1" x="0" y="0" width="32" height="42" style="fill:none;"/><g><clipPath id="_clip1"><rect x="0" y="0" width="16" height="42"/></clipPath><g clip-path="url(#_clip1)"><path d="M32.215,43.927l-0.075,-0.678c-0.03,-0.269 -0.271,-0.462 -0.54,-0.433l-0.042,0.005l-0.73,-5.839c-0.159,-1.271 -1.034,-2.337 -2.248,-2.742l-5.375,-1.791c-0.108,0.243 -0.228,0.48 -0.358,0.711l-1.115,-0.371c-0.679,-0.227 -1.136,-0.862 -1.136,-1.577l0,-2.68l3.579,-1.492c1.858,-0.774 3.069,-2.59 3.069,-4.602l0,-0.832c1.376,0 2.493,-1.116 2.493,-2.493c0,-1.376 -1.117,-2.493 -2.493,-2.493l0,-1.662c0,-2.294 -1.861,-4.155 -4.155,-4.155l-14.959,0c-2.295,0 -4.155,1.861 -4.155,4.155l0,1.662c-1.377,0 -2.493,1.117 -2.493,2.493c0,1.377 1.116,2.493 2.493,2.493l0,0.832c0,2.012 1.211,3.828 3.068,4.602l3.58,1.492l0,2.68c0,0.716 -0.458,1.351 -1.136,1.577l-1.116,0.372c-0.13,-0.232 -0.249,-0.469 -0.357,-0.712l-5.376,1.791c-1.214,0.405 -2.088,1.471 -2.247,2.742l-0.73,5.839l-0.042,-0.005c-0.269,-0.029 -0.511,0.164 -0.54,0.433l-0.076,0.679c-0.029,0.268 0.164,0.51 0.433,0.54l1.215,0.135l0,1.934c0,0.918 0.744,1.662 1.662,1.662l26.593,0c0.918,0 1.662,-0.744 1.662,-1.662l0,-1.934l1.215,-0.135c0.269,-0.03 0.462,-0.272 0.432,-0.541Z" style="fill:#f6b47b;fill-rule:nonzero;"/><path d="M27.241,5.839c0,-0.008 0.003,-0.014 0.003,-0.022c0,-2.294 -1.861,-4.155 -4.155,-4.155c-0.647,0 -1.251,0.16 -1.796,0.423c-0.684,-0.764 -1.668,-1.254 -2.775,-1.254c-0.58,0 -1.122,0.143 -1.612,0.379c-0.437,-0.722 -1.222,-1.21 -2.128,-1.21c-0.997,0 -1.852,0.59 -2.25,1.437c-0.54,-0.379 -1.195,-0.606 -1.905,-0.606c-1.391,0 -2.58,0.856 -3.075,2.07c-0.291,-0.251 -0.665,-0.408 -1.08,-0.408c-0.918,0 -1.662,0.744 -1.662,1.662c0,0 -4.155,-0.034 -4.155,4.986c0,2.34 1.662,9.142 1.662,9.142l26.593,0c0,0 0.831,-3.844 0.831,-9.142c0,-1.439 -1.338,-2.582 -2.496,-3.302Z" style="fill:#734a3e;fill-rule:nonzero;"/><path d="M14.29,13.247c-2.062,-0.245 -3.667,-1.978 -3.667,-4.106c0,-2.138 1.622,-3.879 3.7,-4.109c-0.236,-0.522 -0.376,-1.098 -0.376,-1.708c0,-1.303 0.608,-2.452 1.549,-3.209c-0.228,-0.07 -0.467,-0.115 -0.718,-0.115c-0.997,0 -1.852,0.59 -2.25,1.437c-0.54,-0.379 -1.195,-0.606 -1.905,-0.606c-1.391,0 -2.58,0.856 -3.075,2.07c-0.291,-0.251 -0.665,-0.408 -1.08,-0.408c-0.918,0 -1.662,0.744 -1.662,1.662c0,0 -4.155,-0.034 -4.155,4.986c0,2.34 1.662,9.142 1.662,9.142l11.946,0l0.031,-5.036Z" style="fill:#5e342e;fill-rule:nonzero;"/><path d="M20.596,28.462l-9.973,0l0,2.75c0,0.598 -0.331,1.125 -0.832,1.419c6.969,1.22 10.805,-4.169 10.805,-4.169Z" style="fill:#e2a071;fill-rule:nonzero;"/><path d="M27.244,16.62l0,-1.662c0,-2.294 -1.861,-4.155 -4.155,-4.155l-14.959,0c-2.295,0 -4.155,1.861 -4.155,4.155l0,1.662c-1.377,0 -2.493,1.117 -2.493,2.493c0,1.377 1.116,2.493 2.493,2.493l0,0.832c0,2.012 1.211,3.828 3.068,4.602l5.37,2.237c1.013,0.422 2.099,0.64 3.196,0.64c1.097,0 2.184,-0.218 3.196,-0.64l5.37,-2.237c1.858,-0.774 3.069,-2.59 3.069,-4.602l0,-0.832c1.376,0 2.493,-1.116 2.493,-2.493c0,-1.376 -1.117,-2.493 -2.493,-2.493Z" style="fill:#fdc88e;fill-rule:nonzero;"/><path d="M9.792,19.945c-0.457,0 -0.831,-0.375 -0.831,-0.832l0,-0.83c0,-0.458 0.374,-0.832 0.831,-0.832c0.457,0 0.831,0.374 0.831,0.832l0,0.83c0,0.457 -0.374,0.832 -0.831,0.832Z" style="fill:#623f33;fill-rule:nonzero;"/><path d="M21.426,19.945c-0.457,0 -0.83,-0.375 -0.83,-0.832l0,-0.83c0,-0.458 0.373,-0.832 0.83,-0.832c0.457,0 0.831,0.374 0.831,0.832l0,0.83c0,0.457 -0.374,0.832 -0.831,0.832Z" style="fill:#623f33;fill-rule:nonzero;"/><path d="M15.609,25.784c-1.477,0 -2.859,-0.363 -3.791,-0.997c-0.38,-0.259 -0.479,-0.775 -0.22,-1.155c0.258,-0.379 0.775,-0.477 1.155,-0.219c0.653,0.444 1.721,0.71 2.856,0.71c1.136,0 2.204,-0.266 2.857,-0.71c0.38,-0.259 0.896,-0.16 1.154,0.219c0.259,0.38 0.16,0.896 -0.219,1.155c-0.932,0.634 -2.314,0.997 -3.792,0.997Z" style="fill:#e2a071;fill-rule:nonzero;"/><path d="M8.337,25.317c-0.673,-0.722 -1.038,-1.674 -1.038,-2.662l0,-11.768c-1.896,0.385 -3.324,2.061 -3.324,4.071l0,1.662c-1.377,0 -2.493,1.117 -2.493,2.493c0,1.377 1.116,2.493 2.493,2.493l0,0.832c0,2.012 1.211,3.828 3.068,4.602l5.37,2.237c0.262,0.11 0.531,0.204 0.803,0.286c-2.374,-1.736 -3.953,-3.253 -4.879,-4.246Z" style="fill:#f6b47b;fill-rule:nonzero;"/><path d="M30.828,36.982c-0.159,-1.271 -1.034,-2.337 -2.248,-2.742l-5.375,-1.791l-5.103,3.285l-1.662,1.662l-1.662,0l-1.662,-1.662l-5.102,-3.285l-5.376,1.791c-1.214,0.405 -2.088,1.471 -2.247,2.742l-0.79,6.323l6.867,0.739l0,4.155l18.282,0l0,-4.155l6.96,0l-0.882,-7.062Z" style="fill:#43a0c5;fill-rule:nonzero;"/><path d="M6.468,44.671l0,-1.88c0,-0.8 -0.288,-1.573 -0.811,-2.177l-4.573,-5.278c-0.369,0.467 -0.616,1.031 -0.693,1.646l-0.868,6.943c1.322,0.08 4.838,0.492 6.945,0.746Z" style="fill:#2c8cb3;fill-rule:nonzero;"/><path d="M6.468,43.577l-6.849,-0.761c-0.269,-0.029 -0.511,0.164 -0.54,0.433l-0.076,0.678c-0.03,0.269 0.164,0.511 0.432,0.541l7.033,0.781l0,-1.672Z" style="fill:#1179a2;fill-rule:nonzero;"/><path d="M24.751,44.671l0,-1.88c0,-0.8 0.288,-1.573 0.811,-2.177l4.573,-5.278c0.369,0.467 0.616,1.031 0.693,1.646l0.868,6.943c-1.322,0.08 -4.838,0.492 -6.945,0.746Z" style="fill:#2c8cb3;fill-rule:nonzero;"/><path d="M24.751,43.577l6.849,-0.761c0.269,-0.029 0.51,0.164 0.54,0.433l0.075,0.678c0.03,0.269 -0.163,0.511 -0.432,0.541l-7.032,0.781l0,-1.672Z" style="fill:#1179a2;fill-rule:nonzero;"/><path d="M10.253,31.439l2.863,4.295l-2.493,3.324l-3.324,-6.648l1.802,-1.201c0.382,-0.255 0.897,-0.152 1.152,0.23Z" style="fill:#2c8cb3;fill-rule:nonzero;"/><path d="M20.965,31.439l-2.863,4.295l2.494,3.324l3.323,-6.648l-1.801,-1.201c-0.382,-0.255 -0.898,-0.152 -1.153,0.23Z" style="fill:#2c8cb3;fill-rule:nonzero;"/><path d="M15.609,44.044c-0.459,0 -0.831,-0.372 -0.831,-0.831l0,-5.817l1.662,0l0,5.817c0,0.459 -0.372,0.831 -0.831,0.831Z" style="fill:#2c8cb3;fill-rule:nonzero;"/><path d="M25.997,7.479c-0.469,0 -0.906,0.122 -1.298,0.319c-0.255,-2.05 -1.984,-3.643 -4.103,-3.643c-1.455,0 -2.73,0.75 -3.472,1.88c-0.34,-0.139 -0.71,-0.218 -1.099,-0.218c-0.389,0 -0.76,0.079 -1.099,0.218c-0.742,-1.13 -2.018,-1.88 -3.472,-1.88c-2.295,0 -4.155,1.861 -4.155,4.155c0,2.295 1.86,4.155 4.155,4.155c1.184,0 2.247,-0.501 3.003,-1.296c0.453,0.292 0.989,0.466 1.568,0.466c0.578,0 1.114,-0.174 1.567,-0.466c0.757,0.795 1.819,1.296 3.004,1.296c1.035,0 1.971,-0.392 2.698,-1.019c0.424,1.082 1.471,1.85 2.703,1.85c1.606,0 2.909,-1.302 2.909,-2.908c0,-1.607 -1.303,-2.909 -2.909,-2.909Z" style="fill:#734a3e;fill-rule:nonzero;"/><path d="M11.974,8.622c0,2.18 -1.768,3.947 -3.948,3.947c-2.18,0 -3.947,-1.767 -3.947,-3.947c0,-2.18 1.767,-3.948 3.947,-3.948c2.18,0 3.948,1.768 3.948,3.948Z" style="fill:#5e342e;fill-rule:nonzero;"/></g></g><g><clipPath id="_clip2"><rect x="16" y="0" width="18.286" height="48"/></clipPath><g clip-path="url(#_clip2)"><path d="M30.28,37.76c-0.181,-1.36 -1.024,-2.541 -2.251,-3.154l-1.782,-0.892c-0.266,-0.132 -0.57,-0.015 -0.701,0.237l-0.898,-0.33c6.193,-1.687 9.48,-4.655 9.48,-4.655c-3.258,-6.363 -2.379,-16.035 -4.966,-21.518c-2.586,-5.482 -7.448,-7.448 -13.241,-7.448c-5.793,0 -10.655,1.966 -13.241,7.448c-2.586,5.483 -1.707,15.155 -4.966,21.518c0,0 3.287,2.968 9.48,4.655l-0.898,0.33c-0.128,-0.252 -0.432,-0.37 -0.697,-0.238l-1.625,0.813c-1.388,0.693 -2.23,1.874 -2.412,3.234l-0.04,0.301l-0.951,7.128c-0.197,1.489 0.96,2.811 2.462,2.811l25.776,0c1.502,0 2.66,-1.322 2.462,-2.811l-0.991,-7.429Z" style="fill:#ffd7a3;fill-rule:nonzero;"/><path d="M29.162,7.448c-2.586,-5.482 -7.448,-7.448 -13.241,-7.448c-5.793,0 -10.655,1.966 -13.241,7.448c-2.586,5.483 -1.707,15.155 -4.966,21.518c0,0 6.414,5.793 18.207,5.793c11.793,0 18.207,-5.793 18.207,-5.793c-3.258,-6.363 -2.379,-16.035 -4.966,-21.518Z" style="fill:#9d6e48;fill-rule:nonzero;"/><path d="M10.955,14.793c0,-5.793 2.164,-11.202 6.532,-14.736c-0.514,-0.034 -1.034,-0.057 -1.566,-0.057c-5.793,0 -10.655,1.966 -13.241,7.448c-2.586,5.483 -1.707,15.155 -4.966,21.518c0,0 4.7,4.127 13.241,5.407l0,-19.58Z" style="fill:#8d5f3d;fill-rule:nonzero;"/><path d="M30.32,38.061c-0.202,-1.523 -1.232,-2.806 -2.673,-3.336l-5.629,-2.071c-0.675,-0.225 -1.131,-0.859 -1.131,-1.571l0,-5.428l-9.932,0l0,5.428c0,0.712 -0.456,1.344 -1.131,1.571l-5.629,2.071c-1.441,0.53 -2.469,1.813 -2.673,3.336l-0.951,7.128c-0.197,1.489 0.96,2.811 2.462,2.811l25.777,0c1.501,0 2.66,-1.322 2.461,-2.811l-0.951,-7.128Z" style="fill:#ffd7a3;fill-rule:nonzero;"/><path d="M10.955,31.083c0,0.04 -0.001,0.08 -0.004,0.12c-0.001,0.021 -0.004,0.042 -0.007,0.062c-0.001,0.016 -0.003,0.033 -0.005,0.049c-0.005,0.031 -0.01,0.063 -0.017,0.094c0,0.001 0,0.002 -0.001,0.002c-0.091,0.455 -0.37,0.852 -0.767,1.091c6.923,1.195 10.733,-4.087 10.733,-4.087l-9.932,-0.069l0,2.738Z" style="fill:#fdc88e;fill-rule:nonzero;"/><path d="M27.507,16.552l0,-1.656c0,-2.285 -1.852,-4.137 -4.138,-4.137l-14.896,0c-2.286,0 -4.138,1.852 -4.138,4.137l0,1.656c-1.37,0 -2.482,1.112 -2.482,2.482c0,1.372 1.112,2.483 2.482,2.483l0,0.828c0,2.005 1.206,3.812 3.056,4.583l5.347,2.229c1.008,0.42 2.091,0.636 3.183,0.636c1.093,0 2.174,-0.216 3.183,-0.636l5.347,-2.229c1.851,-0.77 3.056,-2.578 3.056,-4.583l0,-0.828c1.372,0 2.484,-1.111 2.484,-2.483c0,-1.37 -1.112,-2.482 -2.484,-2.482Z" style="fill:#ffe1b2;fill-rule:nonzero;"/><path d="M23.162,13.203l0,-2.133l-16.26,0c-1.507,0.618 -2.567,2.098 -2.567,3.826l0,1.656c-1.37,0 -2.482,1.112 -2.482,2.482c0,1.372 1.112,2.483 2.482,2.483l0,0.828c0,2.005 1.206,3.813 3.056,4.583l5.347,2.229c0.262,0.108 0.529,0.203 0.799,0.284c-2.363,-1.729 -3.936,-3.24 -4.857,-4.228c-0.671,-0.719 -1.034,-1.668 -1.034,-2.651l0,-6.021c2.669,-0.067 11.139,-0.5 15.516,-3.338Z" style="fill:#ffd7a3;fill-rule:nonzero;"/><path d="M10.128,19.863c-0.455,0 -0.827,-0.374 -0.827,-0.829l0,-0.827c0,-0.455 0.372,-0.828 0.827,-0.828c0.455,0 0.827,0.373 0.827,0.828l0,0.827c0,0.455 -0.372,0.829 -0.827,0.829Z" style="fill:#623f33;fill-rule:nonzero;"/><path d="M21.714,19.863c-0.455,0 -0.827,-0.374 -0.827,-0.829l0,-0.827c0,-0.455 0.372,-0.828 0.827,-0.828c0.455,0 0.828,0.373 0.828,0.828l0,0.827c0,0.455 -0.373,0.829 -0.828,0.829Z" style="fill:#623f33;fill-rule:nonzero;"/><path d="M15.921,25.678c-1.471,0 -2.848,-0.363 -3.776,-0.993c-0.377,-0.258 -0.475,-0.773 -0.218,-1.15c0.257,-0.377 0.771,-0.476 1.15,-0.22c0.65,0.443 1.714,0.708 2.844,0.708c1.13,0 2.194,-0.265 2.845,-0.708c0.378,-0.257 0.892,-0.158 1.149,0.22c0.258,0.377 0.16,0.892 -0.218,1.15c-0.928,0.63 -2.304,0.993 -3.776,0.993Z" style="fill:#e4b07b;fill-rule:nonzero;"/><path d="M5.99,14.896c0,0 5.276,0.518 8.276,-0.827c0.422,-0.189 1.655,-2.896 1.655,-2.896l0,3.723c0,0 3.806,-0.197 7.759,-1.792l0,-2.967l-18.254,0c0.376,1.894 0.564,4.759 0.564,4.759Z" style="fill:#9d6e48;fill-rule:nonzero;"/><path d="M28.029,34.606l-1.782,-0.892c-0.303,-0.151 -0.655,0.022 -0.744,0.348c-1.148,4.217 -5.001,7.317 -9.582,7.317c-4.582,0 -8.436,-3.101 -9.583,-7.32c-0.088,-0.324 -0.439,-0.497 -0.739,-0.346l-1.625,0.813c-1.388,0.693 -2.23,1.874 -2.412,3.234l-0.991,7.429c-0.197,1.489 0.96,2.811 2.462,2.811l25.777,0c1.501,0 2.66,-1.322 2.461,-2.811l-0.991,-7.429c-0.181,-1.36 -1.024,-2.541 -2.251,-3.154Z" style="fill:#ff6473;fill-rule:nonzero;"/><path d="M1.939,36.53c-0.187,0.387 -0.32,0.797 -0.377,1.23l-0.991,7.429c-0.197,1.489 0.96,2.811 2.462,2.811l3.784,0l0,-3.31c0,-1.074 -0.348,-2.12 -0.993,-2.979l-3.885,-5.181Z" style="fill:#f05467;fill-rule:nonzero;"/><path d="M29.903,36.53c0.187,0.387 0.32,0.797 0.377,1.23l0.991,7.429c0.198,1.489 -0.96,2.811 -2.462,2.811l-3.784,0l0,-3.31c0,-1.074 0.349,-2.12 0.992,-2.979l3.886,-5.181Z" style="fill:#f05467;fill-rule:nonzero;"/><path d="M26.266,10.722c0,1.115 -2.248,2.017 -3.362,2.017c-1.114,0 -2.017,-0.902 -2.017,-2.017c0,-1.114 0.903,-2.017 2.017,-2.017c1.114,0 3.362,0.903 3.362,2.017Z" style="fill:#bd445a;fill-rule:nonzero;"/><path d="M26.266,10.722c0,-1.114 2.248,-2.017 3.363,-2.017c1.113,0 2.017,0.903 2.017,2.017c0,1.115 -0.904,2.017 -2.017,2.017c-1.115,0 -3.363,-0.902 -3.363,-2.017Z" style="fill:#bd445a;fill-rule:nonzero;"/><path d="M26.266,10.722c0.965,0.557 0.623,2.956 0.065,3.92c-0.556,0.966 -1.789,1.296 -2.755,0.739c-0.965,-0.557 -1.295,-1.79 -0.738,-2.756c0.557,-0.964 2.464,-2.46 3.428,-1.903Z" style="fill:#ff6473;fill-rule:nonzero;"/><path d="M26.266,10.722c-0.964,-0.557 -0.624,-2.955 -0.066,-3.92c0.558,-0.964 1.791,-1.296 2.757,-0.738c0.964,0.557 1.294,1.791 0.738,2.755c-0.558,0.965 -2.464,2.46 -3.429,1.903Z" style="fill:#ff6473;fill-rule:nonzero;"/><path d="M26.266,10.722c-0.964,0.557 -0.624,2.956 -0.066,3.92c0.558,0.966 1.791,1.296 2.757,0.739c0.964,-0.557 1.294,-1.79 0.738,-2.756c-0.558,-0.964 -2.464,-2.46 -3.429,-1.903Z" style="fill:#f05467;fill-rule:nonzero;"/><path d="M26.266,10.722c0.965,-0.557 0.623,-2.955 0.065,-3.92c-0.556,-0.964 -1.789,-1.296 -2.755,-0.738c-0.965,0.557 -1.295,1.791 -0.738,2.755c0.557,0.965 2.464,2.46 3.428,1.903Z" style="fill:#f05467;fill-rule:nonzero;"/><path d="M27.61,10.722c0,0.743 -0.601,1.345 -1.344,1.345c-0.743,0 -1.345,-0.602 -1.345,-1.345c0,-0.743 0.602,-1.345 1.345,-1.345c0.743,0 1.344,0.602 1.344,1.345Z" style="fill:#fff;fill-rule:nonzero;"/><path d="M5.426,10.137c0.376,1.894 0.564,4.759 0.564,4.759c0,0 2.387,0.233 4.863,-0.023l0,-0.08c0,-1.592 0.176,-3.153 0.515,-4.656l-5.942,0Z" style="fill:#8d5f3d;fill-rule:nonzero;"/></g></g><rect x="15" y="0" width="2" height="42" style="fill:#fff;"/></svg>