<?xml version="1.0" encoding="UTF-8" standalone="no"?><!DOCTYPE svg PUBLIC "-//W3C//DTD SVG 1.1//EN" "http://www.w3.org/Graphics/SVG/1.1/DTD/svg11.dtd"><svg width="100%" height="100%" viewBox="0 0 30 31" version="1.1" xmlns="http://www.w3.org/2000/svg" xmlns:xlink="http://www.w3.org/1999/xlink" xml:space="preserve" xmlns:serif="http://www.serif.com/" style="fill-rule:evenodd;clip-rule:evenodd;stroke-linejoin:round;stroke-miterlimit:1.41421;"><rect id="Artboard1" x="0" y="0" width="30" height="31" style="fill:none;"/><clipPath id="_clip1"><rect id="Artboard11" serif:id="Artboard1" x="0" y="0" width="30" height="31"/></clipPath><g clip-path="url(#_clip1)"><path d="M14.998,1c-8.281,0 -14.998,6.714 -14.998,14.998c0,8.285 6.717,15.002 14.998,15.002c8.285,0 15.002,-6.717 15.002,-15.002c0,-8.284 -6.715,-14.998 -15.002,-14.998Zm0,4.484c2.741,0 4.964,2.224 4.964,4.962c0,2.741 -2.223,4.96 -4.964,4.96c-2.737,0 -4.958,-2.219 -4.958,-4.96c0,-2.738 2.221,-4.962 4.958,-4.962Zm-0.003,21.594c-2.731,0 -5.237,-0.996 -7.168,-2.644c-0.469,-0.402 -0.74,-0.988 -0.74,-1.609c0,-2.776 2.249,-4.999 5.026,-4.999l5.774,0c2.78,0 5.019,2.223 5.019,4.999c0,0.621 -0.271,1.207 -0.74,1.609c-1.93,1.648 -4.437,2.644 -7.171,2.644Z" style="fill:#fff;fill-rule:nonzero;"/></g></svg>